<?xml version="1.0" encoding="UTF-8"?>
<svg width="512px" height="512px" viewBox="0 0 512 512" version="1.1" xmlns="http://www.w3.org/2000/svg" xmlns:xlink="http://www.w3.org/1999/xlink">
    <!-- Generator: Sketch 63.1 (92452) - https://sketch.com -->
    <title>sprite</title>
    <desc>Created with Sketch.</desc>
    <defs>
        <linearGradient x1="50%" y1="1.28800676%" x2="50%" y2="100%" id="linearGradient-1">
            <stop stop-color="#4F4F4F" offset="0%"></stop>
            <stop stop-color="#797979" offset="100%"></stop>
        </linearGradient>
        <path d="M14,23 C9.02943725,23 5,18.9705627 5,14 C5,9.02943725 9.02943725,5 14,5 C18.9705627,5 23,9.02943725 23,14 C23,18.9705627 18.9705627,23 14,23 Z M17.5610375,15.66875 L15.0718625,13.4259125 L14.5639625,8.50145 C14.5321647,8.21478899 14.2898817,7.99789513 14.0014625,7.99789513 C13.7130433,7.99789513 13.4707603,8.21478899 13.4389625,8.50145 C13.4321375,8.5674125 12.8790875,13.931825 12.8719625,13.997225 C12.8333617,14.3779095 13.0419655,14.7407781 13.3903625,14.8989875 L16.9749875,16.5714875 C17.2201236,16.682643 17.5096948,16.597938 17.6562821,16.3721961 C17.8028695,16.1464542 17.7624514,15.847468 17.5611875,15.66875 L17.5610375,15.66875 Z" id="path-2"></path>
        <filter x="-19.4%" y="-13.9%" width="138.9%" height="138.9%" filterUnits="objectBoundingBox" id="filter-3">
            <feOffset dx="0" dy="1" in="SourceAlpha" result="shadowOffsetOuter1"></feOffset>
            <feGaussianBlur stdDeviation="1" in="shadowOffsetOuter1" result="shadowBlurOuter1"></feGaussianBlur>
            <feColorMatrix values="0 0 0 0 0   0 0 0 0 0   0 0 0 0 0  0 0 0 0.153217876 0" type="matrix" in="shadowBlurOuter1"></feColorMatrix>
        </filter>
        <linearGradient x1="50%" y1="2.45196368%" x2="50%" y2="100%" id="linearGradient-4">
            <stop stop-color="#EA3423" offset="0%"></stop>
            <stop stop-color="#EF6B4C" offset="100%"></stop>
        </linearGradient>
        <path d="M14.7138827,17.1418656 L13.2860403,17.1418656 C12.9373525,17.1532856 12.6401196,16.8880655 12.6076352,16.5365266 L12.0001022,5.6730482 C11.9969279,5.49129295 12.0678153,5.31622859 12.1961055,5.18899646 C12.3243957,5.06176434 12.4987766,4.99358325 12.6782674,5.00047622 L15.3216956,5.00047622 C15.5011878,4.99364225 15.675551,5.06185247 15.8038368,5.18908801 C15.9321225,5.31632355 16.0030278,5.49137388 15.9999008,5.67312915 L15.3922478,16.5365266 C15.3597642,16.8880494 15.0625553,17.1532637 14.7138827,17.1418656 Z M13.995482,18.7618104 C14.8790401,18.7618104 15.5953054,19.4867039 15.5953054,20.3809052 C15.5953054,21.2751066 14.8790401,22 13.995482,22 C13.1119239,22 12.3956586,21.2751066 12.3956586,20.3809052 C12.3956586,19.4867039 13.1119239,18.7618104 13.995482,18.7618104 Z" id="path-5"></path>
        <filter x="-87.5%" y="-14.7%" width="275.0%" height="141.2%" filterUnits="objectBoundingBox" id="filter-6">
            <feOffset dx="0" dy="1" in="SourceAlpha" result="shadowOffsetOuter1"></feOffset>
            <feGaussianBlur stdDeviation="1" in="shadowOffsetOuter1" result="shadowBlurOuter1"></feGaussianBlur>
            <feColorMatrix values="0 0 0 0 0   0 0 0 0 0   0 0 0 0 0  0 0 0 0.153217876 0" type="matrix" in="shadowBlurOuter1"></feColorMatrix>
        </filter>
        <linearGradient x1="50%" y1="2.57297186%" x2="50%" y2="100%" id="linearGradient-7">
            <stop stop-color="#FF8E3D" offset="0%"></stop>
            <stop stop-color="#FCC450" offset="100%"></stop>
        </linearGradient>
        <path d="M14.7138827,17.1418656 L13.2860403,17.1418656 C12.9373525,17.1532856 12.6401196,16.8880655 12.6076352,16.5365266 L12.0001022,5.6730482 C11.9969279,5.49129295 12.0678153,5.31622859 12.1961055,5.18899646 C12.3243957,5.06176434 12.4987766,4.99358325 12.6782674,5.00047622 L15.3216956,5.00047622 C15.5011878,4.99364225 15.675551,5.06185247 15.8038368,5.18908801 C15.9321225,5.31632355 16.0030278,5.49137388 15.9999008,5.67312915 L15.3922478,16.5365266 C15.3597642,16.8880494 15.0625553,17.1532637 14.7138827,17.1418656 Z M13.995482,18.7618104 C14.8790401,18.7618104 15.5953054,19.4867039 15.5953054,20.3809052 C15.5953054,21.2751066 14.8790401,22 13.995482,22 C13.1119239,22 12.3956586,21.2751066 12.3956586,20.3809052 C12.3956586,19.4867039 13.1119239,18.7618104 13.995482,18.7618104 Z" id="path-8"></path>
        <filter x="-87.5%" y="-14.7%" width="275.0%" height="141.2%" filterUnits="objectBoundingBox" id="filter-9">
            <feOffset dx="0" dy="1" in="SourceAlpha" result="shadowOffsetOuter1"></feOffset>
            <feGaussianBlur stdDeviation="1" in="shadowOffsetOuter1" result="shadowBlurOuter1"></feGaussianBlur>
            <feColorMatrix values="0 0 0 0 0   0 0 0 0 0   0 0 0 0 0  0 0 0 0.153217876 0" type="matrix" in="shadowBlurOuter1"></feColorMatrix>
        </filter>
        <linearGradient x1="50%" y1="2.45196368%" x2="50%" y2="100%" id="linearGradient-10">
            <stop stop-color="#4D8CF2" offset="0%"></stop>
            <stop stop-color="#86CAFA" offset="100%"></stop>
        </linearGradient>
        <path d="M14.7138827,17.1418656 L13.2860403,17.1418656 C12.9373525,17.1532856 12.6401196,16.8880655 12.6076352,16.5365266 L12.0001022,5.6730482 C11.9969279,5.49129295 12.0678153,5.31622859 12.1961055,5.18899646 C12.3243957,5.06176434 12.4987766,4.99358325 12.6782674,5.00047622 L15.3216956,5.00047622 C15.5011878,4.99364225 15.675551,5.06185247 15.8038368,5.18908801 C15.9321225,5.31632355 16.0030278,5.49137388 15.9999008,5.67312915 L15.3922478,16.5365266 C15.3597642,16.8880494 15.0625553,17.1532637 14.7138827,17.1418656 Z M13.995482,18.7618104 C14.8790401,18.7618104 15.5953054,19.4867039 15.5953054,20.3809052 C15.5953054,21.2751066 14.8790401,22 13.995482,22 C13.1119239,22 12.3956586,21.2751066 12.3956586,20.3809052 C12.3956586,19.4867039 13.1119239,18.7618104 13.995482,18.7618104 Z" id="path-11"></path>
        <filter x="-87.5%" y="-14.7%" width="275.0%" height="141.2%" filterUnits="objectBoundingBox" id="filter-12">
            <feOffset dx="0" dy="1" in="SourceAlpha" result="shadowOffsetOuter1"></feOffset>
            <feGaussianBlur stdDeviation="1" in="shadowOffsetOuter1" result="shadowBlurOuter1"></feGaussianBlur>
            <feColorMatrix values="0 0 0 0 0   0 0 0 0 0   0 0 0 0 0  0 0 0 0.153217876 0" type="matrix" in="shadowBlurOuter1"></feColorMatrix>
        </filter>
        <linearGradient x1="50%" y1="0%" x2="50%" y2="100%" id="linearGradient-13">
            <stop stop-color="#52B3CC" offset="0%"></stop>
            <stop stop-color="#51EDEC" offset="100%"></stop>
        </linearGradient>
        <path d="M22,15.0760573 C21.9993096,16.1543882 21.3269626,17.1123408 20.3284635,17.4576439 C20.2145883,17.4996182 20.1354727,17.6061604 20.1264766,17.7296526 C19.8917364,20.2376859 17.773058,22.1149742 15.3132197,21.9945143 C12.8533814,21.8740545 10.9196476,19.7983171 10.9201238,17.2788117 L10.9201238,17.2788117 C10.9186474,17.0674636 10.7782484,16.8836306 10.5781578,16.8310547 C9.41700372,16.5129257 8.47616171,15.6430409 8.04964579,14.49324 L6.17320054,9.37092354 C5.9174432,8.6769267 5.94590371,7.90675562 6.25214897,7.23449666 C6.55839423,6.56223771 7.11656948,6.04464633 7.80050706,5.79871679 C7.89636389,5.76177851 7.9770862,5.692576 8.02940711,5.60248285 C8.30639298,5.14018482 8.84109226,4.91061364 9.35759378,5.03223076 C9.87409531,5.15384788 10.2569075,5.59945929 10.3084948,6.13912421 C10.3600821,6.67878914 10.0689094,7.19183664 9.5852252,7.41352812 C9.10154101,7.6352196 8.53349882,7.51598407 8.17421515,7.11734849 C8.12386427,7.06530621 8.04542763,7.05482508 7.98370092,7.09189094 C7.78803927,7.20095931 7.61992701,7.35519611 7.49271307,7.54235421 C7.21474213,7.94714953 7.15168085,8.46684802 7.32446754,8.92889368 L9.20100506,14.0513675 C9.56649201,15.0464075 10.4966415,15.7053956 11.5356349,15.7053956 C12.5746283,15.7053956 13.5047778,15.0464075 13.8702647,14.0513675 L15.7467407,8.92889368 C15.9195697,8.46685732 15.856518,7.94714265 15.5785259,7.54235421 C15.451312,7.35519611 15.2831997,7.20095931 15.0875381,7.09189094 C15.0258209,7.05483005 14.9473955,7.06531137 14.8970546,7.11734849 C14.5385726,7.51242546 13.9736869,7.62948311 13.4931918,7.40826199 C13.0126967,7.18704086 12.7237088,6.67685773 12.7749946,6.14034686 C12.8262804,5.603836 13.2064067,5.16060161 13.7196905,5.0388138 C14.2329743,4.917026 14.7649894,5.1438349 15.0418627,5.60248285 C15.0941684,5.69258917 15.1748959,5.76179607 15.2707627,5.79871679 C15.9547112,6.04463267 16.5128992,6.56222051 16.8191517,7.23448263 C17.1254042,7.90674475 17.1538647,8.67692315 16.8981,9.37092354 L15.021624,14.49324 C14.5951161,15.6430229 13.6543017,16.5129033 12.4931734,16.8310547 C12.2930828,16.8836306 12.1526839,17.0674636 12.1512075,17.2788117 L12.1512075,17.2788117 C12.1514374,19.0939056 13.5219204,20.6006159 15.2914601,20.7312085 C17.0609997,20.8618012 18.6286626,19.571927 18.8835204,17.7756587 C18.9040358,17.6284161 18.8212416,17.4865148 18.6848245,17.4351129 C17.516246,16.991816 16.8563596,15.7244442 17.1487467,14.4849354 C17.4411337,13.2454266 18.5933951,12.4254855 19.8309711,12.5762833 C21.0685471,12.7270811 22.0003439,13.8009633 22,15.0760573 Z M19.5377402,14.1320197 C19.0281873,14.1322804 18.6152958,14.5550558 18.6154655,15.0763719 C18.6156354,15.5976879 19.0288023,16.0201816 19.5383553,16.0200948 C20.0479083,16.0200079 20.4609376,15.5973734 20.4609376,15.0760573 C20.4608887,14.8256166 20.3635931,14.5854545 20.1904573,14.4084104 C20.0173216,14.2313663 19.78253,14.1319446 19.5377402,14.1320197 L19.5377402,14.1320197 Z" id="path-14"></path>
        <filter x="-21.9%" y="-14.7%" width="143.8%" height="141.2%" filterUnits="objectBoundingBox" id="filter-15">
            <feOffset dx="0" dy="1" in="SourceAlpha" result="shadowOffsetOuter1"></feOffset>
            <feGaussianBlur stdDeviation="1" in="shadowOffsetOuter1" result="shadowBlurOuter1"></feGaussianBlur>
            <feColorMatrix values="0 0 0 0 0   0 0 0 0 0   0 0 0 0 0  0 0 0 0.153217876 0" type="matrix" in="shadowBlurOuter1"></feColorMatrix>
        </filter>
        <linearGradient x1="50%" y1="0%" x2="50%" y2="100%" id="linearGradient-16">
            <stop stop-color="#C0C0C0" offset="0%"></stop>
            <stop stop-color="#CFCFCF" offset="100%"></stop>
        </linearGradient>
        <path d="M22,23 L6,23 C4.8954305,23 4,22.1045695 4,21 L4,7 C4,5.8954305 4.8954305,5 6,5 L22,5 C23.1045695,5 24,5.8954305 24,7 L24,21 C24,22.1045695 23.1045695,23 22,23 Z M10,7.5 C10,7.22385763 9.77614237,7 9.5,7 L6.5,7 C6.22385763,7 6,7.22385763 6,7.5 L6,20.5 C6,20.7761424 6.22385763,21 6.5,21 L9.5,21 C9.77614237,21 10,20.7761424 10,20.5 L10,7.5 Z M16,7.5 C16,7.22385763 15.7761424,7 15.5,7 L12.5,7 C12.2238576,7 12,7.22385763 12,7.5 L12,20.5 C12,20.7761424 12.2238576,21 12.5,21 L15.5,21 C15.7761424,21 16,20.7761424 16,20.5 L16,7.5 Z M22,7.5 C22,7.22385763 21.7761424,7 21.5,7 L18.5,7 C18.2238576,7 18,7.22385763 18,7.5 L18,20.5 C18,20.7761424 18.2238576,21 18.5,21 L21.5,21 C21.7761424,21 22,20.7761424 22,20.5 L22,7.5 Z" id="path-17"></path>
        <filter x="-17.5%" y="-13.9%" width="135.0%" height="138.9%" filterUnits="objectBoundingBox" id="filter-18">
            <feOffset dx="0" dy="1" in="SourceAlpha" result="shadowOffsetOuter1"></feOffset>
            <feGaussianBlur stdDeviation="1" in="shadowOffsetOuter1" result="shadowBlurOuter1"></feGaussianBlur>
            <feColorMatrix values="0 0 0 0 0   0 0 0 0 0   0 0 0 0 0  0 0 0 0.153217876 0" type="matrix" in="shadowBlurOuter1"></feColorMatrix>
        </filter>
        <linearGradient x1="50%" y1="0%" x2="50%" y2="100%" id="linearGradient-19">
            <stop stop-color="#FF9549" offset="0%"></stop>
            <stop stop-color="#ECD576" offset="100%"></stop>
        </linearGradient>
        <path d="M21.9614789,20 L6.03852111,20 C5.66354487,19.9997768 5.31777422,19.8007408 5.13374821,19.4791855 C4.94972219,19.1576301 4.9559872,18.7634355 5.15014175,18.4477023 L13.1116206,5.49315524 C13.2996144,5.18705203 13.636567,5 13.9999827,5 C14.3633984,5 14.700351,5.18705203 14.8883447,5.49315524 L22.8498583,18.4477023 C23.0440128,18.7634355 23.0502778,19.1576301 22.8662518,19.4791855 C22.6822258,19.8007408 22.3364551,19.9997768 21.9614789,20 Z M13.9999654,18.6411133 C14.5736996,18.6411133 15.0388031,18.1833528 15.0388031,17.6186765 C15.0388031,17.0540002 14.5736996,16.5962397 13.9999654,16.5962397 C13.4262312,16.5962397 12.9611277,17.0540002 12.9611277,17.6186765 C12.9611277,17.8898436 13.0705763,18.1499044 13.2653962,18.3416485 C13.4602161,18.5333926 13.7244485,18.6411133 13.9999654,18.6411133 L13.9999654,18.6411133 Z M14.6920044,9.09834616 L13.314194,9.09834616 C13.2181699,9.0972653 13.1259088,9.1350695 13.0590508,9.20291516 C12.9921929,9.27076083 12.9566206,9.36267855 12.9606775,9.45710869 L13.2774191,15.2509173 C13.2894216,15.4338873 13.444688,15.5756865 13.6309702,15.5738214 L14.3752282,15.5738214 C14.5615034,15.5756531 14.7167599,15.4338768 14.7288139,15.2509173 L15.0455555,9.45710869 C15.0496031,9.36267834 15.0140217,9.27076423 14.9471573,9.20292504 C14.8802928,9.13508585 14.7880282,9.09729042 14.6920044,9.09834616 L14.6920044,9.09834616 Z" id="path-20"></path>
        <filter x="-19.4%" y="-16.7%" width="138.9%" height="146.7%" filterUnits="objectBoundingBox" id="filter-21">
            <feOffset dx="0" dy="1" in="SourceAlpha" result="shadowOffsetOuter1"></feOffset>
            <feGaussianBlur stdDeviation="1" in="shadowOffsetOuter1" result="shadowBlurOuter1"></feGaussianBlur>
            <feColorMatrix values="0 0 0 0 0   0 0 0 0 0   0 0 0 0 0  0 0 0 0.153217876 0" type="matrix" in="shadowBlurOuter1"></feColorMatrix>
        </filter>
        <path d="M13.0015427,11.5 L7.16004412,17.3425 L5.28536551,15.4675 C5.0951542,15.2772561 4.81791516,15.2029574 4.55808167,15.2725915 C4.29824818,15.3422256 4.09529512,15.5452134 4.02567295,15.8050915 C3.95605077,16.0649695 4.03033675,16.3422561 4.22054806,16.5325 L9.6946096,22 L16.0010284,22 L16.0010284,21.25 C16.0010284,20.0073593 14.9938418,19 13.7514141,19 L13.6014398,19 L17.3133035,16.9375 L19.0005142,22 L22,22 L18.4981004,11.5 L13.0015427,11.5 Z M20.5002571,5.5 L15.251157,5.5 L13.0015427,4 L13.0015427,10 L22,10 L22,7 C22,6.17157288 21.3285422,5.5 20.5002571,5.5 Z M16.0010284,8.5 C15.5868859,8.5 15.251157,8.16421356 15.251157,7.75 C15.251157,7.33578644 15.5868859,7 16.0010284,7 C16.415171,7 16.7508999,7.33578644 16.7508999,7.75 C16.7508999,8.16421356 16.415171,8.5 16.0010284,8.5 Z" id="path-22"></path>
        <filter x="-19.4%" y="-13.9%" width="138.9%" height="138.9%" filterUnits="objectBoundingBox" id="filter-23">
            <feOffset dx="0" dy="1" in="SourceAlpha" result="shadowOffsetOuter1"></feOffset>
            <feGaussianBlur stdDeviation="1" in="shadowOffsetOuter1" result="shadowBlurOuter1"></feGaussianBlur>
            <feColorMatrix values="0 0 0 0 0   0 0 0 0 0   0 0 0 0 0  0 0 0 0.153217876 0" type="matrix" in="shadowBlurOuter1"></feColorMatrix>
        </filter>
        <linearGradient x1="50%" y1="0%" x2="50%" y2="100%" id="linearGradient-24">
            <stop stop-color="#C0C0C0" offset="0%"></stop>
            <stop stop-color="#CFCFCF" offset="100%"></stop>
        </linearGradient>
        <linearGradient x1="50%" y1="0%" x2="50%" y2="100%" id="linearGradient-25">
            <stop stop-color="#C0C0C0" offset="0%"></stop>
            <stop stop-color="#CFCFCF" offset="100%"></stop>
        </linearGradient>
    </defs>
    <g id="sprite" stroke="none" stroke-width="1" fill="none" fill-rule="evenodd">
        <g id="iconServiceWellnessPlan" transform="translate(8.000000, 198.000000)">
            <rect id="Bounding" fill-opacity="0" fill="#FFFFFF" x="0" y="0" width="24" height="24" rx="1"></rect>
            <path d="M23.42,8.29 L20.57,5.78 L19.05,2.29 L15.27,1.93 L12,0 L8.73,1.93 L5,2.29 L3.43,5.78 L0.58,8.29 L1.41,12 L0.58,15.71 L3.43,18.22 L5,21.71 L8.78,22.07 L9.78,22.67 L9.78,22.67 L12,24 L14.26,22.67 L14.26,22.67 L15.26,22.07 L19.04,21.71 L20.56,18.22 L23.41,15.71 L22.59,12 L23.42,8.29 Z M13,17 L13,18 C13,18.5522847 12.5522847,19 12,19 C11.4477153,19 11,18.5522847 11,18 L11,17 L9.5,17 C8.94771525,17 8.5,16.5522847 8.5,16 C8.5,15.4477153 8.94771525,15 9.5,15 L12.82,15 C13.4208488,15.0461632 13.9469872,14.6002833 14,14 C13.9469872,13.3997167 13.4208488,12.9538368 12.82,13 L11.18,13 C9.47528146,13.0448765 8.05441939,11.7044406 8,10 C8.03701543,8.35872252 9.35872252,7.03701543 11,7 L11,6 C11,5.44771525 11.4477153,5 12,5 C12.5522847,5 13,5.44771525 13,6 L13,7 L14,7 C14.5522847,7 15,7.44771525 15,8 C15,8.55228475 14.5522847,9 14,9 L11.18,9 C10.5791512,8.9538368 10.0530128,9.39971674 10,10 C10.0530128,10.6002833 10.5791512,11.0461632 11.18,11 L12.82,11 C14.5247185,10.9551235 15.9455806,12.2955594 16,14 C15.9629846,15.6412775 14.6412775,16.9629846 13,17 Z" id="Icon" fill="#858594"></path>
        </g>
        <g id="iconConversationChatInputActionAttachmentSelected" transform="translate(119.000000, 166.000000)" fill="#FFFFFF">
            <rect id="Bounding" fill-opacity="0" x="0" y="0" width="11" height="14"></rect>
            <path d="M7.02777778,4.08333333 C6.8590241,4.08333333 6.72222222,3.95274972 6.72222222,3.79166667 L6.72222222,0.704141667 C6.72222222,0.586187555 6.79667763,0.479853134 6.91084144,0.434712009 C7.02500525,0.389570884 7.15641449,0.414510608 7.24380556,0.497904167 L10.4783861,3.58545833 C10.5657469,3.66887332 10.5918761,3.79430235 10.5445933,3.90327425 C10.4973104,4.01224615 10.3859237,4.08333333 10.2623583,4.08333333 L7.02777778,4.08333333 Z M11,5.54166667 L11,13.125 C11,13.6082492 10.5895944,14 10.0833333,14 L0.916666667,14 C0.410405646,14 0,13.6082492 0,13.125 L0,0.875 C0,0.391750844 0.410405646,0 0.916666667,0 L5.19444444,0 C5.70070547,0 6.11111111,0.391750844 6.11111111,0.875 L6.11111111,3.79166667 C6.11111111,4.27491582 6.52151676,4.66666667 7.02777778,4.66666667 L10.0833333,4.66666667 C10.3264537,4.66666667 10.5596161,4.75885791 10.7315254,4.92295855 C10.9034346,5.08705918 11,5.30962635 11,5.54169583 L11,5.54166667 Z" id="Icon"></path>
        </g>
        <g id="iconConversationChatInputActionSend" transform="translate(138.000000, 166.000000)">
            <circle id="Oval" fill="#6EB8B4" cx="12" cy="12" r="12"></circle>
            <rect id="Rectangle" fill="#FFFFFF" x="11" y="6" width="2" height="12" rx="1"></rect>
            <path d="M15,7 C15.5522847,7 16,7.44771525 16,8 C16,8.55228475 15.5522847,9 15,9 L10,9 L10,14 C10,14.5522847 9.55228475,15 9,15 C8.44771525,15 8,14.5522847 8,14 L8,8 C8,7.44771525 8.44771525,7 9,7 L15,7 Z" id="Combined-Shape" fill="#FFFFFF" transform="translate(12.000000, 11.000000) rotate(45.000000) translate(-12.000000, -11.000000) "></path>
        </g>
        <g id="iconConversationChatInputActionAppointmentSelected" transform="translate(78.000000, 166.000000)" fill="#FFFFFF">
            <rect id="Bounding" fill-opacity="0" x="0" y="0" width="14" height="14"></rect>
            <path d="M4.45454545,0.608695652 L4.45454545,1.82608696 C4.45454545,2.16226028 4.16963575,2.43478261 3.81818182,2.43478261 C3.46672789,2.43478261 3.18181818,2.16226028 3.18181818,1.82608696 L3.18181818,0.608695652 C3.18181818,0.272522326 3.46672789,0 3.81818182,0 C4.16963575,0 4.45454545,0.272522326 4.45454545,0.608695652 Z M14,2.43478261 L14,12.7826087 C14,13.4549553 13.4301806,14 12.7272727,14 L1.27272727,14 C0.569819409,14 0,13.4549553 0,12.7826087 L0,2.43478261 C0,1.76243596 0.569819409,1.2173913 1.27272727,1.2173913 L2.22727273,1.2173913 C2.40299969,1.2173913 2.54545455,1.35365247 2.54545455,1.52173913 L2.54545455,1.7738 C2.53430514,2.41370552 3.02923335,2.958746 3.6932,3.03775652 C4.05077125,3.07144931 4.40657539,2.95902622 4.67280672,2.72823113 C4.93903805,2.49743603 5.09089752,2.16976716 5.09090909,1.82608696 L5.09090909,1.52173913 C5.09090909,1.35365247 5.23336394,1.2173913 5.40909091,1.2173913 L8.59090909,1.2173913 C8.76663606,1.2173913 8.90909091,1.35365247 8.90909091,1.52173913 L8.90909091,1.7738 C8.89795252,2.41367983 9.39283875,2.9587043 10.0567727,3.03775652 C10.4143521,3.0714579 10.7701678,2.95903971 11.0364113,2.72824462 C11.3026547,2.49744952 11.4545257,2.16977575 11.4545455,1.82608696 L11.4545455,1.52173913 C11.4545455,1.35365247 11.5970003,1.2173913 11.7727273,1.2173913 L12.7272727,1.2173913 C13.064821,1.2173913 13.3885441,1.34565181 13.6272268,1.57395696 C13.8659095,1.80226212 14,2.11191036 14,2.43478261 Z M12.4090909,6.08695652 L1.59090909,6.08695652 C1.41518213,6.08695652 1.27272727,6.22321768 1.27272727,6.39130435 L1.27272727,12.4782609 C1.27272727,12.6463475 1.41518213,12.7826087 1.59090909,12.7826087 L12.4090909,12.7826087 C12.5848179,12.7826087 12.7272727,12.6463475 12.7272727,12.4782609 L12.7272727,6.39130435 C12.7272727,6.22321768 12.5848179,6.08695652 12.4090909,6.08695652 Z M10.1818182,0 C10.5332721,0 10.8181818,0.272522326 10.8181818,0.608695652 L10.8181818,1.82608696 C10.8181818,2.16226028 10.5332721,2.43478261 10.1818182,2.43478261 C9.83036425,2.43478261 9.54545455,2.16226028 9.54545455,1.82608696 L9.54545455,0.608695652 C9.54545455,0.272522326 9.83036425,0 10.1818182,0 Z" id="Icon"></path>
        </g>
        <g id="iconConversationChatInputActionVideoSelected" transform="translate(32.000000, 166.000000)" fill="#FFFFFF">
            <rect id="Bounding" fill-opacity="0" x="0" y="0" width="16" height="10"></rect>
            <path d="M15.6203084,9.32740625 C15.3903162,9.42419911 15.125559,9.37071625 14.9495405,9.19190625 L11.8726233,6.06690625 C11.757201,5.94971564 11.692316,5.79075759 11.692316,5.625 L11.692316,4.375 C11.692316,4.20924241 11.757201,4.05028436 11.8726233,3.93309375 L14.9495405,0.80809375 C15.1255406,0.629397286 15.390189,0.575953031 15.6201101,0.672675999 C15.8500311,0.769398968 16,0.997246877 16,1.25 L16,8.75 C16,9.00273407 15.8501789,9.2306091 15.6203084,9.32740625 Z M1.8461503,0 L9.23075148,0 C10.2503521,0 11.0769018,0.839466094 11.0769018,1.875 L11.0769018,8.125 C11.0769018,9.16053391 10.2503521,10 9.23075148,10 L1.8461503,10 C0.826549642,10 0,9.16053391 0,8.125 L0,1.875 C0,0.839466094 0.826549642,0 1.8461503,0 Z" id="Icon"></path>
        </g>
        <g id="iconConversationChatInputActionAttachment" transform="translate(100.000000, 166.000000)">
            <rect id="Bounding" fill-opacity="0" fill="#FFFFFF" x="0" y="0" width="11" height="14"></rect>
            <path d="M7.02777778,4.08333333 C6.8590241,4.08333333 6.72222222,3.95274972 6.72222222,3.79166667 L6.72222222,0.704141667 C6.72222222,0.586187555 6.79667763,0.479853134 6.91084144,0.434712009 C7.02500525,0.389570884 7.15641449,0.414510608 7.24380556,0.497904167 L10.4783861,3.58545833 C10.5657469,3.66887332 10.5918761,3.79430235 10.5445933,3.90327425 C10.4973104,4.01224615 10.3859237,4.08333333 10.2623583,4.08333333 L7.02777778,4.08333333 Z M11,5.54166667 L11,13.125 C11,13.6082492 10.5895944,14 10.0833333,14 L0.916666667,14 C0.410405646,14 0,13.6082492 0,13.125 L0,0.875 C0,0.391750844 0.410405646,0 0.916666667,0 L5.19444444,0 C5.70070547,0 6.11111111,0.391750844 6.11111111,0.875 L6.11111111,3.79166667 C6.11111111,4.27491582 6.52151676,4.66666667 7.02777778,4.66666667 L10.0833333,4.66666667 C10.3264537,4.66666667 10.5596161,4.75885791 10.7315254,4.92295855 C10.9034346,5.08705918 11,5.30962635 11,5.54169583 L11,5.54166667 Z" id="Icon" fill="#858594"></path>
        </g>
        <g id="iconConversationChatInputActionAppointment" transform="translate(56.000000, 166.000000)">
            <rect id="Bounding" fill-opacity="0" fill="#FFFFFF" x="0" y="0" width="14" height="14"></rect>
            <path d="M4.45454545,0.608695652 L4.45454545,1.82608696 C4.45454545,2.16226028 4.16963575,2.43478261 3.81818182,2.43478261 C3.46672789,2.43478261 3.18181818,2.16226028 3.18181818,1.82608696 L3.18181818,0.608695652 C3.18181818,0.272522326 3.46672789,0 3.81818182,0 C4.16963575,0 4.45454545,0.272522326 4.45454545,0.608695652 Z M14,2.43478261 L14,12.7826087 C14,13.4549553 13.4301806,14 12.7272727,14 L1.27272727,14 C0.569819409,14 0,13.4549553 0,12.7826087 L0,2.43478261 C0,1.76243596 0.569819409,1.2173913 1.27272727,1.2173913 L2.22727273,1.2173913 C2.40299969,1.2173913 2.54545455,1.35365247 2.54545455,1.52173913 L2.54545455,1.7738 C2.53430514,2.41370552 3.02923335,2.958746 3.6932,3.03775652 C4.05077125,3.07144931 4.40657539,2.95902622 4.67280672,2.72823113 C4.93903805,2.49743603 5.09089752,2.16976716 5.09090909,1.82608696 L5.09090909,1.52173913 C5.09090909,1.35365247 5.23336394,1.2173913 5.40909091,1.2173913 L8.59090909,1.2173913 C8.76663606,1.2173913 8.90909091,1.35365247 8.90909091,1.52173913 L8.90909091,1.7738 C8.89795252,2.41367983 9.39283875,2.9587043 10.0567727,3.03775652 C10.4143521,3.0714579 10.7701678,2.95903971 11.0364113,2.72824462 C11.3026547,2.49744952 11.4545257,2.16977575 11.4545455,1.82608696 L11.4545455,1.52173913 C11.4545455,1.35365247 11.5970003,1.2173913 11.7727273,1.2173913 L12.7272727,1.2173913 C13.064821,1.2173913 13.3885441,1.34565181 13.6272268,1.57395696 C13.8659095,1.80226212 14,2.11191036 14,2.43478261 Z M12.4090909,6.08695652 L1.59090909,6.08695652 C1.41518213,6.08695652 1.27272727,6.22321768 1.27272727,6.39130435 L1.27272727,12.4782609 C1.27272727,12.6463475 1.41518213,12.7826087 1.59090909,12.7826087 L12.4090909,12.7826087 C12.5848179,12.7826087 12.7272727,12.6463475 12.7272727,12.4782609 L12.7272727,6.39130435 C12.7272727,6.22321768 12.5848179,6.08695652 12.4090909,6.08695652 Z M10.1818182,0 C10.5332721,0 10.8181818,0.272522326 10.8181818,0.608695652 L10.8181818,1.82608696 C10.8181818,2.16226028 10.5332721,2.43478261 10.1818182,2.43478261 C9.83036425,2.43478261 9.54545455,2.16226028 9.54545455,1.82608696 L9.54545455,0.608695652 C9.54545455,0.272522326 9.83036425,0 10.1818182,0 Z" id="Icon" fill="#858594"></path>
        </g>
        <g id="iconConversationChatInputActionVideo" transform="translate(8.000000, 166.000000)">
            <rect id="Bounding" fill-opacity="0" fill="#FFFFFF" x="0" y="0" width="16" height="10"></rect>
            <path d="M15.6203084,9.32740625 C15.3903162,9.42419911 15.125559,9.37071625 14.9495405,9.19190625 L11.8726233,6.06690625 C11.757201,5.94971564 11.692316,5.79075759 11.692316,5.625 L11.692316,4.375 C11.692316,4.20924241 11.757201,4.05028436 11.8726233,3.93309375 L14.9495405,0.80809375 C15.1255406,0.629397286 15.390189,0.575953031 15.6201101,0.672675999 C15.8500311,0.769398968 16,0.997246877 16,1.25 L16,8.75 C16,9.00273407 15.8501789,9.2306091 15.6203084,9.32740625 Z M1.8461503,0 L9.23075148,0 C10.2503521,0 11.0769018,0.839466094 11.0769018,1.875 L11.0769018,8.125 C11.0769018,9.16053391 10.2503521,10 9.23075148,10 L1.8461503,10 C0.826549642,10 0,9.16053391 0,8.125 L0,1.875 C0,0.839466094 0.826549642,0 1.8461503,0 Z" id="Icon" fill="#858594"></path>
        </g>
        <g id="iconConversationContextDetailsConsultationReminderEmpty" transform="translate(332.000000, 130.000000)" fill="#858594">
            <path d="M10.2555408,-4.14336123e-16 L17.7444592,4.14336123e-16 C21.3105342,-2.4074122e-16 22.6036791,0.371302445 23.9073828,1.06853082 C25.2110865,1.76575919 26.2342408,2.78891348 26.9314692,4.09261719 C27.6286976,5.39632089 28,6.68946584 28,10.2555408 L28,17.7444592 C28,21.3105342 27.6286976,22.6036791 26.9314692,23.9073828 C26.2342408,25.2110865 25.2110865,26.2342408 23.9073828,26.9314692 C22.6036791,27.6286976 21.3105342,28 17.7444592,28 L10.2555408,28 C6.68946584,28 5.39632089,27.6286976 4.09261719,26.9314692 C2.78891348,26.2342408 1.76575919,25.2110865 1.06853082,23.9073828 C0.371302445,22.6036791 1.60494146e-16,21.3105342 -2.76224082e-16,17.7444592 L2.76224082e-16,10.2555408 C-1.60494146e-16,6.68946584 0.371302445,5.39632089 1.06853082,4.09261719 C1.76575919,2.78891348 2.78891348,1.76575919 4.09261719,1.06853082 C5.39632089,0.371302445 6.68946584,2.4074122e-16 10.2555408,-4.14336123e-16 Z" id="Background" fill-opacity="0.14"></path>
            <path d="M10.6916765,7.1593975 C10.7424592,7.21734666 10.7676363,7.29286448 10.7616143,7.36917416 C10.7555924,7.44548384 10.7188703,7.51626594 10.6596059,7.56579573 L6.19240196,11.2463099 C6.06689093,11.3477535 5.88179457,11.3306229 5.77768015,11.2079276 C5.21986737,10.5700717 4.94343938,9.73951312 5.00965239,8.90030314 C5.07586541,8.06109315 5.47925143,7.28253527 6.13042045,6.7371573 C7.51140826,5.62323151 9.54574763,5.81155242 10.6916765,7.1593975 Z M12.5601563,8.25079311 L12.5601563,8.1147718 C12.5601563,7.7233049 12.8824567,7.40595828 13.2800344,7.40595828 L14.7197908,7.40595828 C15.1173685,7.40595828 15.4396689,7.7233049 15.4396689,8.1147718 L15.4396689,8.25079311 C18.0276244,8.74292356 20.1676276,10.5282365 21.0856573,12.9609991 C22.003687,15.3937616 21.5668507,18.1218112 19.9331484,20.1584348 L21.182605,22.6156786 C21.2244031,22.6980229 21.2198951,22.7958101 21.1706922,22.8740872 C21.1214894,22.9523643 21.0346152,23 20.9411219,23 L19.5049649,23 C19.3140731,23 19.1309746,22.9253091 18.9959031,22.7924921 L18.0321302,21.8447376 C15.5717584,23.3850875 12.4285347,23.3850875 9.96816294,21.8447376 L9.00439005,22.7924921 C8.86936511,22.9253127 8.68629766,23 8.49543619,23 L7.05927925,23 C6.96577951,23 6.87889385,22.9523815 6.82968232,22.8741023 C6.78047079,22.7958231 6.77595911,22.6980286 6.81776012,22.6156786 L8.06707268,20.1584348 C6.43348394,18.1218355 5.99666426,15.3938969 6.91459161,12.9611912 C7.83251896,10.5284856 9.97233175,8.74312469 12.5601563,8.25079311 Z M11.1445159,17.9984674 L14.5852095,16.4136313 C14.9198742,16.2631562 15.1200002,15.9194839 15.0828253,15.5590857 C15.0761305,15.4971 14.5452563,10.413454 14.5386694,10.3507949 C14.5089247,10.0792606 14.2761332,9.87344055 13.9987608,9.87344055 C13.7213883,9.87344055 13.4885969,10.0792606 13.4588522,10.3507949 L12.9712787,15.0176231 L10.5819311,17.1429649 C10.3884878,17.3120696 10.3494661,17.5949299 10.4900884,17.8087144 C10.6307106,18.0224988 10.9088217,18.1031202 11.1446598,17.9984674 L11.1445159,17.9984674 Z M17.3084007,7.14904883 C18.4539415,5.80053741 20.4888001,5.61205776 21.8696567,6.72656053 C22.5208262,7.27254612 22.924146,8.05155119 22.9903488,8.8911573 C23.0565517,9.7307634 22.7801776,10.5617274 22.222397,11.2001307 C22.1183129,11.322874 21.9331833,11.3400234 21.8076752,11.2385484 L17.3404712,7.55573058 C17.2812144,7.50613447 17.2445045,7.43530823 17.2384839,7.35896105 C17.2324632,7.28261387 17.2576294,7.20705698 17.3084007,7.14904883 L17.3084007,7.14904883 Z" id="Icon"></path>
        </g>
        <g id="iconConversationContextDetailsConsultationOpened" transform="translate(296.000000, 130.000000)">
            <path d="M10.2555408,-4.14336123e-16 L17.7444592,4.14336123e-16 C21.3105342,-2.4074122e-16 22.6036791,0.371302445 23.9073828,1.06853082 C25.2110865,1.76575919 26.2342408,2.78891348 26.9314692,4.09261719 C27.6286976,5.39632089 28,6.68946584 28,10.2555408 L28,17.7444592 C28,21.3105342 27.6286976,22.6036791 26.9314692,23.9073828 C26.2342408,25.2110865 25.2110865,26.2342408 23.9073828,26.9314692 C22.6036791,27.6286976 21.3105342,28 17.7444592,28 L10.2555408,28 C6.68946584,28 5.39632089,27.6286976 4.09261719,26.9314692 C2.78891348,26.2342408 1.76575919,25.2110865 1.06853082,23.9073828 C0.371302445,22.6036791 1.60494146e-16,21.3105342 -2.76224082e-16,17.7444592 L2.76224082e-16,10.2555408 C-1.60494146e-16,6.68946584 0.371302445,5.39632089 1.06853082,4.09261719 C1.76575919,2.78891348 2.78891348,1.76575919 4.09261719,1.06853082 C5.39632089,0.371302445 6.68946584,2.4074122e-16 10.2555408,-4.14336123e-16 Z" id="Background" fill="url(#linearGradient-1)"></path>
            <g id="Icon" fill-rule="nonzero">
                <use fill="black" fill-opacity="1" filter="url(#filter-3)" xlink:href="#path-2"></use>
                <use fill="#FFFFFF" xlink:href="#path-2"></use>
            </g>
        </g>
        <g id="iconConversationContextDetailsConsultationPriorityHigh" transform="translate(260.000000, 130.000000)">
            <path d="M10.2555408,-4.14336123e-16 L17.7444592,4.14336123e-16 C21.3105342,-2.4074122e-16 22.6036791,0.371302445 23.9073828,1.06853082 C25.2110865,1.76575919 26.2342408,2.78891348 26.9314692,4.09261719 C27.6286976,5.39632089 28,6.68946584 28,10.2555408 L28,17.7444592 C28,21.3105342 27.6286976,22.6036791 26.9314692,23.9073828 C26.2342408,25.2110865 25.2110865,26.2342408 23.9073828,26.9314692 C22.6036791,27.6286976 21.3105342,28 17.7444592,28 L10.2555408,28 C6.68946584,28 5.39632089,27.6286976 4.09261719,26.9314692 C2.78891348,26.2342408 1.76575919,25.2110865 1.06853082,23.9073828 C0.371302445,22.6036791 1.60494146e-16,21.3105342 -2.76224082e-16,17.7444592 L2.76224082e-16,10.2555408 C-1.60494146e-16,6.68946584 0.371302445,5.39632089 1.06853082,4.09261719 C1.76575919,2.78891348 2.78891348,1.76575919 4.09261719,1.06853082 C5.39632089,0.371302445 6.68946584,2.4074122e-16 10.2555408,-4.14336123e-16 Z" id="Background" fill="url(#linearGradient-4)"></path>
            <g id="Icon" fill-rule="nonzero">
                <use fill="black" fill-opacity="1" filter="url(#filter-6)" xlink:href="#path-5"></use>
                <use fill="#FFFFFF" xlink:href="#path-5"></use>
            </g>
        </g>
        <g id="iconConversationContextDetailsConsultationPriorityMedium" transform="translate(224.000000, 130.000000)">
            <path d="M10.2555408,-4.14336123e-16 L17.7444592,4.14336123e-16 C21.3105342,-2.4074122e-16 22.6036791,0.371302445 23.9073828,1.06853082 C25.2110865,1.76575919 26.2342408,2.78891348 26.9314692,4.09261719 C27.6286976,5.39632089 28,6.68946584 28,10.2555408 L28,17.7444592 C28,21.3105342 27.6286976,22.6036791 26.9314692,23.9073828 C26.2342408,25.2110865 25.2110865,26.2342408 23.9073828,26.9314692 C22.6036791,27.6286976 21.3105342,28 17.7444592,28 L10.2555408,28 C6.68946584,28 5.39632089,27.6286976 4.09261719,26.9314692 C2.78891348,26.2342408 1.76575919,25.2110865 1.06853082,23.9073828 C0.371302445,22.6036791 1.60494146e-16,21.3105342 -2.76224082e-16,17.7444592 L2.76224082e-16,10.2555408 C-1.60494146e-16,6.68946584 0.371302445,5.39632089 1.06853082,4.09261719 C1.76575919,2.78891348 2.78891348,1.76575919 4.09261719,1.06853082 C5.39632089,0.371302445 6.68946584,2.4074122e-16 10.2555408,-4.14336123e-16 Z" id="Background" fill="url(#linearGradient-7)"></path>
            <g id="Icon" fill-rule="nonzero">
                <use fill="black" fill-opacity="1" filter="url(#filter-9)" xlink:href="#path-8"></use>
                <use fill="#FFFFFF" xlink:href="#path-8"></use>
            </g>
        </g>
        <g id="iconConversationContextDetailsConsultationPriorityLow" transform="translate(188.000000, 130.000000)">
            <path d="M10.2555408,-4.14336123e-16 L17.7444592,4.14336123e-16 C21.3105342,-2.4074122e-16 22.6036791,0.371302445 23.9073828,1.06853082 C25.2110865,1.76575919 26.2342408,2.78891348 26.9314692,4.09261719 C27.6286976,5.39632089 28,6.68946584 28,10.2555408 L28,17.7444592 C28,21.3105342 27.6286976,22.6036791 26.9314692,23.9073828 C26.2342408,25.2110865 25.2110865,26.2342408 23.9073828,26.9314692 C22.6036791,27.6286976 21.3105342,28 17.7444592,28 L10.2555408,28 C6.68946584,28 5.39632089,27.6286976 4.09261719,26.9314692 C2.78891348,26.2342408 1.76575919,25.2110865 1.06853082,23.9073828 C0.371302445,22.6036791 1.60494146e-16,21.3105342 -2.76224082e-16,17.7444592 L2.76224082e-16,10.2555408 C-1.60494146e-16,6.68946584 0.371302445,5.39632089 1.06853082,4.09261719 C1.76575919,2.78891348 2.78891348,1.76575919 4.09261719,1.06853082 C5.39632089,0.371302445 6.68946584,2.4074122e-16 10.2555408,-4.14336123e-16 Z" id="Background" fill="url(#linearGradient-10)"></path>
            <g id="Icon" fill-rule="nonzero">
                <use fill="black" fill-opacity="1" filter="url(#filter-12)" xlink:href="#path-11"></use>
                <use fill="#FFFFFF" xlink:href="#path-11"></use>
            </g>
        </g>
        <g id="iconConversationContextDetailsConsultationPriorityNone" transform="translate(152.000000, 130.000000)" fill="#858594">
            <path d="M10.2555408,-4.14336123e-16 L17.7444592,4.14336123e-16 C21.3105342,-2.4074122e-16 22.6036791,0.371302445 23.9073828,1.06853082 C25.2110865,1.76575919 26.2342408,2.78891348 26.9314692,4.09261719 C27.6286976,5.39632089 28,6.68946584 28,10.2555408 L28,17.7444592 C28,21.3105342 27.6286976,22.6036791 26.9314692,23.9073828 C26.2342408,25.2110865 25.2110865,26.2342408 23.9073828,26.9314692 C22.6036791,27.6286976 21.3105342,28 17.7444592,28 L10.2555408,28 C6.68946584,28 5.39632089,27.6286976 4.09261719,26.9314692 C2.78891348,26.2342408 1.76575919,25.2110865 1.06853082,23.9073828 C0.371302445,22.6036791 1.60494146e-16,21.3105342 -2.76224082e-16,17.7444592 L2.76224082e-16,10.2555408 C-1.60494146e-16,6.68946584 0.371302445,5.39632089 1.06853082,4.09261719 C1.76575919,2.78891348 2.78891348,1.76575919 4.09261719,1.06853082 C5.39632089,0.371302445 6.68946584,2.4074122e-16 10.2555408,-4.14336123e-16 Z" id="Background" fill-opacity="0.14"></path>
            <path d="M14.7138827,17.1418656 L13.2860403,17.1418656 C12.9373525,17.1532856 12.6401196,16.8880655 12.6076352,16.5365266 L12.0001022,5.6730482 C11.9969279,5.49129295 12.0678153,5.31622859 12.1961055,5.18899646 C12.3243957,5.06176434 12.4987766,4.99358325 12.6782674,5.00047622 L15.3216956,5.00047622 C15.5011878,4.99364225 15.675551,5.06185247 15.8038368,5.18908801 C15.9321225,5.31632355 16.0030278,5.49137388 15.9999008,5.67312915 L15.3922478,16.5365266 C15.3597642,16.8880494 15.0625553,17.1532637 14.7138827,17.1418656 Z M13.995482,18.7618104 C14.8790401,18.7618104 15.5953054,19.4867039 15.5953054,20.3809052 C15.5953054,21.2751066 14.8790401,22 13.995482,22 C13.1119239,22 12.3956586,21.2751066 12.3956586,20.3809052 C12.3956586,19.4867039 13.1119239,18.7618104 13.995482,18.7618104 Z" id="Icon"></path>
        </g>
        <g id="iconConversationContextDetailsConsultationSuspectedDiagnosis" transform="translate(116.000000, 130.000000)">
            <path d="M10.2555408,-4.14336123e-16 L17.7444592,4.14336123e-16 C21.3105342,-2.4074122e-16 22.6036791,0.371302445 23.9073828,1.06853082 C25.2110865,1.76575919 26.2342408,2.78891348 26.9314692,4.09261719 C27.6286976,5.39632089 28,6.68946584 28,10.2555408 L28,17.7444592 C28,21.3105342 27.6286976,22.6036791 26.9314692,23.9073828 C26.2342408,25.2110865 25.2110865,26.2342408 23.9073828,26.9314692 C22.6036791,27.6286976 21.3105342,28 17.7444592,28 L10.2555408,28 C6.68946584,28 5.39632089,27.6286976 4.09261719,26.9314692 C2.78891348,26.2342408 1.76575919,25.2110865 1.06853082,23.9073828 C0.371302445,22.6036791 1.60494146e-16,21.3105342 -2.76224082e-16,17.7444592 L2.76224082e-16,10.2555408 C-1.60494146e-16,6.68946584 0.371302445,5.39632089 1.06853082,4.09261719 C1.76575919,2.78891348 2.78891348,1.76575919 4.09261719,1.06853082 C5.39632089,0.371302445 6.68946584,2.4074122e-16 10.2555408,-4.14336123e-16 Z" id="Background" fill="url(#linearGradient-13)"></path>
            <g id="Icon" fill-rule="nonzero">
                <use fill="black" fill-opacity="1" filter="url(#filter-15)" xlink:href="#path-14"></use>
                <use fill="#FFFFFF" xlink:href="#path-14"></use>
            </g>
        </g>
        <g id="iconConversationContextDetailsConsultationStatus" transform="translate(80.000000, 130.000000)">
            <path d="M10.2555408,-4.14336123e-16 L17.7444592,4.14336123e-16 C21.3105342,-2.4074122e-16 22.6036791,0.371302445 23.9073828,1.06853082 C25.2110865,1.76575919 26.2342408,2.78891348 26.9314692,4.09261719 C27.6286976,5.39632089 28,6.68946584 28,10.2555408 L28,17.7444592 C28,21.3105342 27.6286976,22.6036791 26.9314692,23.9073828 C26.2342408,25.2110865 25.2110865,26.2342408 23.9073828,26.9314692 C22.6036791,27.6286976 21.3105342,28 17.7444592,28 L10.2555408,28 C6.68946584,28 5.39632089,27.6286976 4.09261719,26.9314692 C2.78891348,26.2342408 1.76575919,25.2110865 1.06853082,23.9073828 C0.371302445,22.6036791 1.60494146e-16,21.3105342 -2.76224082e-16,17.7444592 L2.76224082e-16,10.2555408 C-1.60494146e-16,6.68946584 0.371302445,5.39632089 1.06853082,4.09261719 C1.76575919,2.78891348 2.78891348,1.76575919 4.09261719,1.06853082 C5.39632089,0.371302445 6.68946584,2.4074122e-16 10.2555408,-4.14336123e-16 Z" id="Background" fill="url(#linearGradient-16)"></path>
            <g id="Icon" fill-rule="nonzero">
                <use fill="black" fill-opacity="1" filter="url(#filter-18)" xlink:href="#path-17"></use>
                <use fill="#FFFFFF" xlink:href="#path-17"></use>
            </g>
        </g>
        <g id="iconConversationContextDetailsPatientSymptoms" transform="translate(44.000000, 130.000000)">
            <path d="M10.2555408,-4.14336123e-16 L17.7444592,4.14336123e-16 C21.3105342,-2.4074122e-16 22.6036791,0.371302445 23.9073828,1.06853082 C25.2110865,1.76575919 26.2342408,2.78891348 26.9314692,4.09261719 C27.6286976,5.39632089 28,6.68946584 28,10.2555408 L28,17.7444592 C28,21.3105342 27.6286976,22.6036791 26.9314692,23.9073828 C26.2342408,25.2110865 25.2110865,26.2342408 23.9073828,26.9314692 C22.6036791,27.6286976 21.3105342,28 17.7444592,28 L10.2555408,28 C6.68946584,28 5.39632089,27.6286976 4.09261719,26.9314692 C2.78891348,26.2342408 1.76575919,25.2110865 1.06853082,23.9073828 C0.371302445,22.6036791 1.60494146e-16,21.3105342 -2.76224082e-16,17.7444592 L2.76224082e-16,10.2555408 C-1.60494146e-16,6.68946584 0.371302445,5.39632089 1.06853082,4.09261719 C1.76575919,2.78891348 2.78891348,1.76575919 4.09261719,1.06853082 C5.39632089,0.371302445 6.68946584,2.4074122e-16 10.2555408,-4.14336123e-16 Z" id="Background" fill="url(#linearGradient-19)"></path>
            <g id="Icon" fill-rule="nonzero">
                <use fill="black" fill-opacity="1" filter="url(#filter-21)" xlink:href="#path-20"></use>
                <use fill="#FFFFFF" xlink:href="#path-20"></use>
            </g>
        </g>
        <g id="iconConversationContextDetailsPatientTypeDog" transform="translate(8.000000, 130.000000)">
            <path d="M10.2555408,-4.14336123e-16 L17.7444592,4.14336123e-16 C21.3105342,-2.4074122e-16 22.6036791,0.371302445 23.9073828,1.06853082 C25.2110865,1.76575919 26.2342408,2.78891348 26.9314692,4.09261719 C27.6286976,5.39632089 28,6.68946584 28,10.2555408 L28,17.7444592 C28,21.3105342 27.6286976,22.6036791 26.9314692,23.9073828 C26.2342408,25.2110865 25.2110865,26.2342408 23.9073828,26.9314692 C22.6036791,27.6286976 21.3105342,28 17.7444592,28 L10.2555408,28 C6.68946584,28 5.39632089,27.6286976 4.09261719,26.9314692 C2.78891348,26.2342408 1.76575919,25.2110865 1.06853082,23.9073828 C0.371302445,22.6036791 1.60494146e-16,21.3105342 -2.76224082e-16,17.7444592 L2.76224082e-16,10.2555408 C-1.60494146e-16,6.68946584 0.371302445,5.39632089 1.06853082,4.09261719 C1.76575919,2.78891348 2.78891348,1.76575919 4.09261719,1.06853082 C5.39632089,0.371302445 6.68946584,2.4074122e-16 10.2555408,-4.14336123e-16 Z" id="Background" fill="url(#linearGradient-16)"></path>
            <g id="Icon" fill-rule="nonzero">
                <use fill="black" fill-opacity="1" filter="url(#filter-23)" xlink:href="#path-22"></use>
                <use fill="#FFFFFF" xlink:href="#path-22"></use>
            </g>
        </g>
        <g id="Assets/Side-Bar/Icon-Settings" transform="translate(200.000000, 80.000000)">
            <rect id="Guide" fill-opacity="0" fill="#C2C2C2" x="0" y="0" width="24" height="24"></rect>
            <path d="M22.7767556,14.4403749 L21.1867556,13.1303749 C21.2386145,12.7492109 21.2653388,12.3650479 21.2667556,11.9803749 L21.2667556,11.9803749 C21.2653388,11.5957019 21.2386145,11.2115388 21.1867556,10.8303749 L22.7767556,9.52037487 C23.5393496,8.90751501 23.7466519,7.83292775 23.2667556,6.98037487 L22.0867556,4.98037487 C21.5964802,4.13166663 20.5633923,3.76331151 19.6467556,4.11037487 L17.7167556,4.83037487 C17.1016998,4.36087605 16.4296931,3.97111213 15.7167556,3.67037487 L15.3867556,1.67037487 C15.223885,0.696240851 14.3743188,-0.0131468868 13.3867556,0.000184803838 L11.0867556,0.000184803838 C10.0991924,-0.0131468868 9.24962625,0.696240851 9.08675561,1.67037487 L8.75675561,3.67037487 C8.04381813,3.97111213 7.37181138,4.36087605 6.75675561,4.83037487 L4.88675561,4.11037487 C3.97011897,3.76331151 2.93703107,4.13166663 2.44675561,4.98037487 L1.26675561,6.98037487 C0.780054808,7.82591153 0.974434943,8.89922793 1.72675561,9.52037487 L3.31675561,10.8303749 C3.27492301,11.2121996 3.25822038,11.5963602 3.26675561,11.9803749 L3.26675561,11.9803749 C3.26817238,12.3650479 3.29489677,12.7492109 3.34675561,13.1303749 L1.75675561,14.4403749 C0.994161592,15.0532347 0.786859325,16.127822 1.26675561,16.9803749 L2.41675561,18.9803749 C2.90703107,19.8290831 3.94011897,20.1974382 4.85675561,19.8503749 L6.78675561,19.1303749 C7.40181138,19.5998737 8.07381813,19.9896376 8.78675561,20.2903749 L9.11675561,22.2903749 C9.27962625,23.2645089 10.1291924,23.9738966 11.1167556,23.9605649 L13.4167556,23.9605649 C14.4043188,23.9738966 15.253885,23.2645089 15.4167556,22.2903749 L15.7467556,20.2903749 C16.4596931,19.9896376 17.1316998,19.5998737 17.7467556,19.1303749 L19.6767556,19.8503749 C20.5847763,20.1805793 21.5990306,19.8144378 22.0867556,18.9803749 L23.2667556,16.9803749 C23.7466519,16.127822 23.5393496,15.0532347 22.7767556,14.4403749 Z M12.2667556,15.9803749 C10.0576166,15.9803749 8.26675561,14.1895139 8.26675561,11.9803749 C8.26675561,9.77123587 10.0576166,7.98037487 12.2667556,7.98037487 C14.4758946,7.98037487 16.2667556,9.77123587 16.2667556,11.9803749 C16.2667556,13.0412408 15.8453282,14.0586565 15.0951827,14.808802 C14.3450372,15.5589475 13.3276216,15.9803749 12.2667556,15.9803749 Z" id="Icon" fill="#FFFFFF"></path>
        </g>
        <g id="Assets/Side-Bar/Icon-Services" transform="translate(168.000000, 80.000000)">
            <rect id="Guide" fill-opacity="0" fill="#C2C2C2" x="0" y="0" width="24" height="24"></rect>
            <path d="M23.42,8.29 L20.57,5.78 L19.05,2.29 L15.27,1.93 L12,0 L8.73,1.93 L5,2.29 L3.43,5.78 L0.58,8.29 L1.41,12 L0.58,15.71 L3.43,18.22 L5,21.71 L8.78,22.07 L9.78,22.67 L9.78,22.67 L12,24 L14.26,22.67 L14.26,22.67 L15.26,22.07 L19.04,21.71 L20.56,18.22 L23.41,15.71 L22.59,12 L23.42,8.29 Z M13,17 L13,18 C13,18.5522847 12.5522847,19 12,19 C11.4477153,19 11,18.5522847 11,18 L11,17 L9.5,17 C8.94771525,17 8.5,16.5522847 8.5,16 C8.5,15.4477153 8.94771525,15 9.5,15 L12.82,15 C13.4208488,15.0461632 13.9469872,14.6002833 14,14 C13.9469872,13.3997167 13.4208488,12.9538368 12.82,13 L11.18,13 C9.47528146,13.0448765 8.05441939,11.7044406 8,10 C8.03701543,8.35872252 9.35872252,7.03701543 11,7 L11,6 C11,5.44771525 11.4477153,5 12,5 C12.5522847,5 13,5.44771525 13,6 L13,7 L14,7 C14.5522847,7 15,7.44771525 15,8 C15,8.55228475 14.5522847,9 14,9 L11.18,9 C10.5791512,8.9538368 10.0530128,9.39971674 10,10 C10.0530128,10.6002833 10.5791512,11.0461632 11.18,11 L12.82,11 C14.5247185,10.9551235 15.9455806,12.2955594 16,14 C15.9629846,15.6412775 14.6412775,16.9629846 13,17 Z" id="Icon" fill="#FFFFFF"></path>
        </g>
        <g id="Assets/Side-Bar/Icon-Clients" transform="translate(136.000000, 80.000000)">
            <rect id="Guide" fill-opacity="0" fill="#C2C2C2" x="0" y="0" width="24" height="24"></rect>
            <path d="M20.8288219,15.1593378 C19.3378858,14.73017 18.878142,14.3227921 18.7645908,13.5658271 C18.7424345,13.4180342 18.8107498,13.2778204 18.9095301,13.1679231 C19.4052779,12.6127523 19.6554598,11.0666111 19.6554598,10.6222849 C20.0210392,10.1097467 20.0801227,9.7933183 20.2721442,8.96435165 C20.4170835,8.34096873 20.1068949,8.09843678 19.9444152,8.0169612 C19.896197,7.98963526 19.8693942,7.93462392 19.877023,7.87864219 C20.5758705,4.5722495 18.6085734,3.34822103 17.9826572,3.46569745 C15.7707173,2.49935918 14.6739792,3.20895463 14.0397543,4.03697389 C12.998407,4.43772006 13.0002534,6.69156195 13.3482923,7.86064177 C13.3690929,7.92385542 13.3405381,7.99304474 13.2818234,8.02169815 C13.1147277,8.10980546 12.8202332,8.35707437 12.9614798,8.96529904 C13.1535013,9.7933183 13.2125848,10.1097467 13.5781642,10.6222849 C13.5781642,11.0675585 13.8283461,12.6118049 14.3240939,13.1669757 C14.4228741,13.2778204 14.4911895,13.4180342 14.4690331,13.5658271 C14.355482,14.3227921 13.8957382,14.7311174 12.4048021,15.1593378 C9.65372498,15.9494615 9.26414292,17.3137037 9.23366318,20.5177783 C9.23269471,20.6444163 9.28077491,20.766268 9.36734069,20.8565253 C9.45390646,20.9467826 9.57186619,20.9980515 9.6952681,20.9990526 L23.5383559,20.9990526 C23.7940768,20.9990526 24.0027156,20.7811528 23.9999733,20.5177783 C23.9694811,17.3137037 23.579899,15.9494615 20.8288219,15.1593378 M8.31234409,20.5281996 C8.31183842,20.7881831 8.10686169,20.9989585 7.8535235,21 L0.46161927,21 C0.338555458,21 0.220585098,20.9495771 0.13391322,20.8599208 C0.0472413429,20.7702644 -0.000955364106,20.6488023 1.43547328e-05,20.5225152 C0.0295709143,17.3155985 0.419152978,15.9504089 3.17207647,15.1602852 C4.49407059,14.7794343 5.2363075,14.2290004 5.46710257,13.5809853 C5.49664433,13.497615 5.43571444,13.4114025 5.35078186,13.4009812 C4.51991963,13.2891891 3.61797253,12.9017064 3.23392955,12.723597 C3.12582627,12.6749579 3.07386051,12.5478859 3.11576248,12.4346429 C3.27916538,11.9770533 3.67890243,10.79471 3.90231205,9.63510409 C4.21065425,8.0368564 3.15361287,6.80619619 4.23004104,4.87920401 C4.46452882,4.45951004 5.04336283,3.46285528 6.46136769,3.73665112 C7.69196696,2.92757967 10.1208542,3.30274629 10.8326262,5.51206083 C11.3459144,7.00230602 10.6027543,8.26801967 10.8658606,9.63510409 C11.0523431,10.6042845 11.0754226,12.2688496 11.0773137,12.7899143 C11.0791903,12.8879949 11.0190958,12.9760956 10.9286369,13.0078141 C10.6535292,13.1082375 10.037768,13.3176108 9.4192372,13.4000338 C9.33338144,13.4114025 9.27152836,13.4985624 9.30199331,13.5819327 C9.44323989,13.9788893 9.77835432,14.3398451 10.3202611,14.6467996 C10.4707395,14.7320647 10.4827408,14.9528067 10.3378015,15.0484932 C8.62530219,16.1711508 8.33819313,17.8679272 8.31234409,20.5281996" id="Icon" fill="#FFFFFF"></path>
        </g>
        <g id="Assets/Side-Bar/Icon-Appointments" transform="translate(104.000000, 80.000000)">
            <rect id="Guide" fill-opacity="0" fill="#C2C2C2" x="0" y="0" width="24" height="24"></rect>
            <path d="M21.5,1 C22.327,1 23,1.673 23,2.5 L23,21.5 C23,22.327 22.327,23 21.5,23 L2.5,23 C1.673,23 1,22.327 1,21.5 L1,2.5 C1,1.673 1.673,1 2.5,1 L21.5,1 Z M19,11 C19.2761424,11 19.5,10.7761424 19.5,10.5 C19.5,10.2238576 19.2761424,10 19,10 C18.7238576,10 18.5,10.2238576 18.5,10.5 C18.5,10.7761424 18.7238576,11 19,11 Z M19,15 C19.2761424,15 19.5,14.7761424 19.5,14.5 C19.5,14.2238576 19.2761424,14 19,14 C18.7238576,14 18.5,14.2238576 18.5,14.5 C18.5,14.7761424 18.7238576,15 19,15 Z M19,19 C19.2761424,19 19.5,18.7761424 19.5,18.5 C19.5,18.2238576 19.2761424,18 19,18 C18.7238576,18 18.5,18.2238576 18.5,18.5 C18.5,18.7761424 18.7238576,19 19,19 Z M15,10.5 C15,10.7761424 15.2238576,11 15.5,11 C15.7761424,11 16,10.7761424 16,10.5 C16,10.2238576 15.7761424,10 15.5,10 C15.2238576,10 15,10.2238576 15,10.5 Z M15.5,16 C16.3284271,16 17,15.3284271 17,14.5 C17,13.6715729 16.3284271,13 15.5,13 C14.6715729,13 14,13.6715729 14,14.5 C14,15.3284271 14.6715729,16 15.5,16 Z M15.5,19 C15.7761424,19 16,18.7761424 16,18.5 C16,18.2238576 15.7761424,18 15.5,18 C15.2238576,18 15,18.2238576 15,18.5 C15,18.7761424 15.2238576,19 15.5,19 Z M12,11 C12.2761424,11 12.5,10.7761424 12.5,10.5 C12.5,10.2238576 12.2761424,10 12,10 C11.7238576,10 11.5,10.2238576 11.5,10.5 C11.5,10.7761424 11.7238576,11 12,11 Z M12,15 C12.2761424,15 12.5,14.7761424 12.5,14.5 C12.5,14.2238576 12.2761424,14 12,14 C11.7238576,14 11.5,14.2238576 11.5,14.5 C11.5,14.7761424 11.7238576,15 12,15 Z M12,19 C12.2761424,19 12.5,18.7761424 12.5,18.5 C12.5,18.2238576 12.2761424,18 12,18 C11.7238576,18 11.5,18.2238576 11.5,18.5 C11.5,18.7761424 11.7238576,19 12,19 Z M8.5,11 C8.77614237,11 9,10.7761424 9,10.5 C9,10.2238576 8.77614237,10 8.5,10 C8.22385763,10 8,10.2238576 8,10.5 C8,10.7761424 8.22385763,11 8.5,11 Z M8.5,15 C8.77614237,15 9,14.7761424 9,14.5 C9,14.2238576 8.77614237,14 8.5,14 C8.22385763,14 8,14.2238576 8,14.5 C8,14.7761424 8.22385763,15 8.5,15 Z M8.5,19 C8.77614237,19 9,18.7761424 9,18.5 C9,18.2238576 8.77614237,18 8.5,18 C8.22385763,18 8,18.2238576 8,18.5 C8,18.7761424 8.22385763,19 8.5,19 Z M5,11 C5.27614237,11 5.5,10.7761424 5.5,10.5 C5.5,10.2238576 5.27614237,10 5,10 C4.72385763,10 4.5,10.2238576 4.5,10.5 C4.5,10.7761424 4.72385763,11 5,11 Z M5,15 C5.27614237,15 5.5,14.7761424 5.5,14.5 C5.5,14.2238576 5.27614237,14 5,14 C4.72385763,14 4.5,14.2238576 4.5,14.5 C4.5,14.7761424 4.72385763,15 5,15 Z M5,19 C5.27614237,19 5.5,18.7761424 5.5,18.5 C5.5,18.2238576 5.27614237,18 5,18 C4.72385763,18 4.5,18.2238576 4.5,18.5 C4.5,18.7761424 4.72385763,19 5,19 Z M3,7 L21,7 L21,3 L3,3 L3,7 Z" id="Icon" fill="#FFFFFF"></path>
        </g>
        <g id="Assets/Side-Bar/Icon-Workflow" transform="translate(72.000000, 80.000000)">
            <rect id="Guide" fill-opacity="0" fill="#C2C2C2" x="0" y="0" width="24" height="24"></rect>
            <path d="M22,22 L2,22 C0.8954305,22 0,21.1045695 0,20 L0,5 C0,3.8954305 0.8954305,3 2,3 L22,3 C23.1045695,3 24,3.8954305 24,5 L24,20 C24,21.1045695 23.1045695,22 22,22 Z M7,5.5 C7,5.22385763 6.77614237,5 6.5,5 L2.5,5 C2.22385763,5 2,5.22385763 2,5.5 L2,19.5 C2,19.7761424 2.22385763,20 2.5,20 L6.5,20 C6.77614237,20 7,19.7761424 7,19.5 L7,5.5 Z M15,5.5 C15,5.22385763 14.7761424,5 14.5,5 L9.5,5 C9.22385763,5 9,5.22385763 9,5.5 L9,19.5 C9,19.7761424 9.22385763,20 9.5,20 L14.5,20 C14.7761424,20 15,19.7761424 15,19.5 L15,5.5 Z M22,5.5 C22,5.22385763 21.7761424,5 21.5,5 L17.5,5 C17.2238576,5 17,5.22385763 17,5.5 L17,19.5 C17,19.7761424 17.2238576,20 17.5,20 L21.5,20 C21.7761424,20 22,19.7761424 22,19.5 L22,5.5 Z" id="Icon" fill="#FFFFFF"></path>
        </g>
        <g id="Assets/Side-Bar/Icon-Conversations" transform="translate(40.000000, 80.000000)">
            <rect id="Guide" fill-opacity="0" fill="#C2C2C2" x="0" y="0" width="24" height="24"></rect>
            <path d="M16,12 C15.4477153,12 15,11.5522847 15,11 C15,10.4477153 15.4477153,10 16,10 C16.5522847,10 17,10.4477153 17,11 C17,11.5522847 16.5522847,12 16,12 M12,12 C11.4477153,12 11,11.5522847 11,11 C11,10.4477153 11.4477153,10 12,10 C12.5522847,10 13,10.4477153 13,11 C13,11.5522847 12.5522847,12 12,12 M8,12 C7.44771525,12 7,11.5522847 7,11 C7,10.4477153 7.44771525,10 8,10 C8.55228475,10 9,10.4477153 9,11 C9,11.5522847 8.55228475,12 8,12 M12,0 C5.383,0 0,4.935 0,11 C0,14.003 1.328,16.721 3.464,18.707 C3.707,18.933 3.85,19.256 3.793,19.582 C3.596,20.729 3.057,21.916 2.161,23.117 L2.096,23.205 C1.98646106,23.3573802 1.97106325,23.5581339 2.05608252,23.7254367 C2.14110179,23.8927395 2.31233895,23.9986498 2.5,24 C5.033,24 6.751,23.052 7.923,21.862 C8.173,21.607 8.546,21.535 8.892,21.62 C9.884,21.866 10.925,22 12,22 C18.617,22 24,17.065 24,11 C24,4.935 18.617,0 12,0" id="Icon" fill="#FFFFFF"></path>
        </g>
        <g id="Assets/Side-Bar/Icon-Overview" transform="translate(8.000000, 80.000000)">
            <rect id="Guide" fill-opacity="0" fill="#C2C2C2" x="0" y="0" width="24" height="24"></rect>
            <path d="M21,13 L19.118,13 L17.895,15.447 C17.7110244,15.8062341 17.3318592,16.0225074 16.929,15.998 C16.5254883,15.9687648 16.1791461,15.6997381 16.051,15.316 L14,9.162 L10.949,18.316 C10.8131792,18.7248288 10.4307996,19.0007239 10,19.0007239 C9.56920038,19.0007239 9.18682081,18.7248288 9.051,18.316 L6.815,11.606 L6.395,12.447 C6.225,12.786 5.879,13 5.5,13 L3,13 C2.44771525,13 2,12.5522847 2,12 C2,11.4477153 2.44771525,11 3,11 L4.882,11 L6.105,8.553 C6.287,8.191 6.673,7.98 7.071,8.002 C7.474,8.031 7.821,8.3 7.949,8.684 L10,14.838 L13.051,5.684 C13.1868208,5.27517116 13.5692004,4.99927607 14,4.99927607 C14.4307996,4.99927607 14.8131792,5.27517116 14.949,5.684 L17.185,12.394 L17.605,11.553 C17.775,11.214 18.121,11 18.5,11 L21,11 C21.5522847,11 22,11.4477153 22,12 C22,12.5522847 21.5522847,13 21,13 M22,2 L2,2 C0.897,2 0,2.897 0,4 L0,20 C0,21.103 0.897,22 2,22 L22,22 C23.103,22 24,21.103 24,20 L24,4 C24,2.897 23.103,2 22,2" id="Icon" fill="#FFFFFF"></path>
        </g>
        <g id="Assets/Side-Bar/Icon-Settings" transform="translate(200.000000, 48.000000)">
            <rect id="Guide" fill-opacity="0" fill="#C2C2C2" x="0" y="0" width="24" height="24"></rect>
            <path d="M22.7767556,14.4403749 L21.1867556,13.1303749 C21.2386145,12.7492109 21.2653388,12.3650479 21.2667556,11.9803749 L21.2667556,11.9803749 C21.2653388,11.5957019 21.2386145,11.2115388 21.1867556,10.8303749 L22.7767556,9.52037487 C23.5393496,8.90751501 23.7466519,7.83292775 23.2667556,6.98037487 L22.0867556,4.98037487 C21.5964802,4.13166663 20.5633923,3.76331151 19.6467556,4.11037487 L17.7167556,4.83037487 C17.1016998,4.36087605 16.4296931,3.97111213 15.7167556,3.67037487 L15.3867556,1.67037487 C15.223885,0.696240851 14.3743188,-0.0131468868 13.3867556,0.000184803838 L11.0867556,0.000184803838 C10.0991924,-0.0131468868 9.24962625,0.696240851 9.08675561,1.67037487 L8.75675561,3.67037487 C8.04381813,3.97111213 7.37181138,4.36087605 6.75675561,4.83037487 L4.88675561,4.11037487 C3.97011897,3.76331151 2.93703107,4.13166663 2.44675561,4.98037487 L1.26675561,6.98037487 C0.780054808,7.82591153 0.974434943,8.89922793 1.72675561,9.52037487 L3.31675561,10.8303749 C3.27492301,11.2121996 3.25822038,11.5963602 3.26675561,11.9803749 L3.26675561,11.9803749 C3.26817238,12.3650479 3.29489677,12.7492109 3.34675561,13.1303749 L1.75675561,14.4403749 C0.994161592,15.0532347 0.786859325,16.127822 1.26675561,16.9803749 L2.41675561,18.9803749 C2.90703107,19.8290831 3.94011897,20.1974382 4.85675561,19.8503749 L6.78675561,19.1303749 C7.40181138,19.5998737 8.07381813,19.9896376 8.78675561,20.2903749 L9.11675561,22.2903749 C9.27962625,23.2645089 10.1291924,23.9738966 11.1167556,23.9605649 L13.4167556,23.9605649 C14.4043188,23.9738966 15.253885,23.2645089 15.4167556,22.2903749 L15.7467556,20.2903749 C16.4596931,19.9896376 17.1316998,19.5998737 17.7467556,19.1303749 L19.6767556,19.8503749 C20.5847763,20.1805793 21.5990306,19.8144378 22.0867556,18.9803749 L23.2667556,16.9803749 C23.7466519,16.127822 23.5393496,15.0532347 22.7767556,14.4403749 Z M12.2667556,15.9803749 C10.0576166,15.9803749 8.26675561,14.1895139 8.26675561,11.9803749 C8.26675561,9.77123587 10.0576166,7.98037487 12.2667556,7.98037487 C14.4758946,7.98037487 16.2667556,9.77123587 16.2667556,11.9803749 C16.2667556,13.0412408 15.8453282,14.0586565 15.0951827,14.808802 C14.3450372,15.5589475 13.3276216,15.9803749 12.2667556,15.9803749 Z" id="Icon" fill="#858594"></path>
        </g>
        <g id="Assets/Side-Bar/Icon-Services" transform="translate(168.000000, 48.000000)">
            <rect id="Guide" fill-opacity="0" fill="#C2C2C2" x="0" y="0" width="24" height="24"></rect>
            <path d="M23.42,8.29 L20.57,5.78 L19.05,2.29 L15.27,1.93 L12,0 L8.73,1.93 L5,2.29 L3.43,5.78 L0.58,8.29 L1.41,12 L0.58,15.71 L3.43,18.22 L5,21.71 L8.78,22.07 L9.78,22.67 L9.78,22.67 L12,24 L14.26,22.67 L14.26,22.67 L15.26,22.07 L19.04,21.71 L20.56,18.22 L23.41,15.71 L22.59,12 L23.42,8.29 Z M13,17 L13,18 C13,18.5522847 12.5522847,19 12,19 C11.4477153,19 11,18.5522847 11,18 L11,17 L9.5,17 C8.94771525,17 8.5,16.5522847 8.5,16 C8.5,15.4477153 8.94771525,15 9.5,15 L12.82,15 C13.4208488,15.0461632 13.9469872,14.6002833 14,14 C13.9469872,13.3997167 13.4208488,12.9538368 12.82,13 L11.18,13 C9.47528146,13.0448765 8.05441939,11.7044406 8,10 C8.03701543,8.35872252 9.35872252,7.03701543 11,7 L11,6 C11,5.44771525 11.4477153,5 12,5 C12.5522847,5 13,5.44771525 13,6 L13,7 L14,7 C14.5522847,7 15,7.44771525 15,8 C15,8.55228475 14.5522847,9 14,9 L11.18,9 C10.5791512,8.9538368 10.0530128,9.39971674 10,10 C10.0530128,10.6002833 10.5791512,11.0461632 11.18,11 L12.82,11 C14.5247185,10.9551235 15.9455806,12.2955594 16,14 C15.9629846,15.6412775 14.6412775,16.9629846 13,17 Z" id="Icon" fill="#858594"></path>
        </g>
        <g id="Assets/Side-Bar/Icon-Clients" transform="translate(136.000000, 48.000000)">
            <rect id="Guide" fill-opacity="0" fill="#C2C2C2" x="0" y="0" width="24" height="24"></rect>
            <path d="M20.8288219,15.1593378 C19.3378858,14.73017 18.878142,14.3227921 18.7645908,13.5658271 C18.7424345,13.4180342 18.8107498,13.2778204 18.9095301,13.1679231 C19.4052779,12.6127523 19.6554598,11.0666111 19.6554598,10.6222849 C20.0210392,10.1097467 20.0801227,9.7933183 20.2721442,8.96435165 C20.4170835,8.34096873 20.1068949,8.09843678 19.9444152,8.0169612 C19.896197,7.98963526 19.8693942,7.93462392 19.877023,7.87864219 C20.5758705,4.5722495 18.6085734,3.34822103 17.9826572,3.46569745 C15.7707173,2.49935918 14.6739792,3.20895463 14.0397543,4.03697389 C12.998407,4.43772006 13.0002534,6.69156195 13.3482923,7.86064177 C13.3690929,7.92385542 13.3405381,7.99304474 13.2818234,8.02169815 C13.1147277,8.10980546 12.8202332,8.35707437 12.9614798,8.96529904 C13.1535013,9.7933183 13.2125848,10.1097467 13.5781642,10.6222849 C13.5781642,11.0675585 13.8283461,12.6118049 14.3240939,13.1669757 C14.4228741,13.2778204 14.4911895,13.4180342 14.4690331,13.5658271 C14.355482,14.3227921 13.8957382,14.7311174 12.4048021,15.1593378 C9.65372498,15.9494615 9.26414292,17.3137037 9.23366318,20.5177783 C9.23269471,20.6444163 9.28077491,20.766268 9.36734069,20.8565253 C9.45390646,20.9467826 9.57186619,20.9980515 9.6952681,20.9990526 L23.5383559,20.9990526 C23.7940768,20.9990526 24.0027156,20.7811528 23.9999733,20.5177783 C23.9694811,17.3137037 23.579899,15.9494615 20.8288219,15.1593378 M8.31234409,20.5281996 C8.31183842,20.7881831 8.10686169,20.9989585 7.8535235,21 L0.46161927,21 C0.338555458,21 0.220585098,20.9495771 0.13391322,20.8599208 C0.0472413429,20.7702644 -0.000955364106,20.6488023 1.43547328e-05,20.5225152 C0.0295709143,17.3155985 0.419152978,15.9504089 3.17207647,15.1602852 C4.49407059,14.7794343 5.2363075,14.2290004 5.46710257,13.5809853 C5.49664433,13.497615 5.43571444,13.4114025 5.35078186,13.4009812 C4.51991963,13.2891891 3.61797253,12.9017064 3.23392955,12.723597 C3.12582627,12.6749579 3.07386051,12.5478859 3.11576248,12.4346429 C3.27916538,11.9770533 3.67890243,10.79471 3.90231205,9.63510409 C4.21065425,8.0368564 3.15361287,6.80619619 4.23004104,4.87920401 C4.46452882,4.45951004 5.04336283,3.46285528 6.46136769,3.73665112 C7.69196696,2.92757967 10.1208542,3.30274629 10.8326262,5.51206083 C11.3459144,7.00230602 10.6027543,8.26801967 10.8658606,9.63510409 C11.0523431,10.6042845 11.0754226,12.2688496 11.0773137,12.7899143 C11.0791903,12.8879949 11.0190958,12.9760956 10.9286369,13.0078141 C10.6535292,13.1082375 10.037768,13.3176108 9.4192372,13.4000338 C9.33338144,13.4114025 9.27152836,13.4985624 9.30199331,13.5819327 C9.44323989,13.9788893 9.77835432,14.3398451 10.3202611,14.6467996 C10.4707395,14.7320647 10.4827408,14.9528067 10.3378015,15.0484932 C8.62530219,16.1711508 8.33819313,17.8679272 8.31234409,20.5281996" id="Icon" fill="#858594"></path>
        </g>
        <g id="Assets/Side-Bar/Icon-Appointments" transform="translate(104.000000, 48.000000)">
            <rect id="Guide" fill-opacity="0" fill="#C2C2C2" x="0" y="0" width="24" height="24"></rect>
            <path d="M21.5,1 C22.327,1 23,1.673 23,2.5 L23,21.5 C23,22.327 22.327,23 21.5,23 L2.5,23 C1.673,23 1,22.327 1,21.5 L1,2.5 C1,1.673 1.673,1 2.5,1 L21.5,1 Z M19,11 C19.2761424,11 19.5,10.7761424 19.5,10.5 C19.5,10.2238576 19.2761424,10 19,10 C18.7238576,10 18.5,10.2238576 18.5,10.5 C18.5,10.7761424 18.7238576,11 19,11 Z M19,15 C19.2761424,15 19.5,14.7761424 19.5,14.5 C19.5,14.2238576 19.2761424,14 19,14 C18.7238576,14 18.5,14.2238576 18.5,14.5 C18.5,14.7761424 18.7238576,15 19,15 Z M19,19 C19.2761424,19 19.5,18.7761424 19.5,18.5 C19.5,18.2238576 19.2761424,18 19,18 C18.7238576,18 18.5,18.2238576 18.5,18.5 C18.5,18.7761424 18.7238576,19 19,19 Z M15,10.5 C15,10.7761424 15.2238576,11 15.5,11 C15.7761424,11 16,10.7761424 16,10.5 C16,10.2238576 15.7761424,10 15.5,10 C15.2238576,10 15,10.2238576 15,10.5 Z M15.5,16 C16.3284271,16 17,15.3284271 17,14.5 C17,13.6715729 16.3284271,13 15.5,13 C14.6715729,13 14,13.6715729 14,14.5 C14,15.3284271 14.6715729,16 15.5,16 Z M15.5,19 C15.7761424,19 16,18.7761424 16,18.5 C16,18.2238576 15.7761424,18 15.5,18 C15.2238576,18 15,18.2238576 15,18.5 C15,18.7761424 15.2238576,19 15.5,19 Z M12,11 C12.2761424,11 12.5,10.7761424 12.5,10.5 C12.5,10.2238576 12.2761424,10 12,10 C11.7238576,10 11.5,10.2238576 11.5,10.5 C11.5,10.7761424 11.7238576,11 12,11 Z M12,15 C12.2761424,15 12.5,14.7761424 12.5,14.5 C12.5,14.2238576 12.2761424,14 12,14 C11.7238576,14 11.5,14.2238576 11.5,14.5 C11.5,14.7761424 11.7238576,15 12,15 Z M12,19 C12.2761424,19 12.5,18.7761424 12.5,18.5 C12.5,18.2238576 12.2761424,18 12,18 C11.7238576,18 11.5,18.2238576 11.5,18.5 C11.5,18.7761424 11.7238576,19 12,19 Z M8.5,11 C8.77614237,11 9,10.7761424 9,10.5 C9,10.2238576 8.77614237,10 8.5,10 C8.22385763,10 8,10.2238576 8,10.5 C8,10.7761424 8.22385763,11 8.5,11 Z M8.5,15 C8.77614237,15 9,14.7761424 9,14.5 C9,14.2238576 8.77614237,14 8.5,14 C8.22385763,14 8,14.2238576 8,14.5 C8,14.7761424 8.22385763,15 8.5,15 Z M8.5,19 C8.77614237,19 9,18.7761424 9,18.5 C9,18.2238576 8.77614237,18 8.5,18 C8.22385763,18 8,18.2238576 8,18.5 C8,18.7761424 8.22385763,19 8.5,19 Z M5,11 C5.27614237,11 5.5,10.7761424 5.5,10.5 C5.5,10.2238576 5.27614237,10 5,10 C4.72385763,10 4.5,10.2238576 4.5,10.5 C4.5,10.7761424 4.72385763,11 5,11 Z M5,15 C5.27614237,15 5.5,14.7761424 5.5,14.5 C5.5,14.2238576 5.27614237,14 5,14 C4.72385763,14 4.5,14.2238576 4.5,14.5 C4.5,14.7761424 4.72385763,15 5,15 Z M5,19 C5.27614237,19 5.5,18.7761424 5.5,18.5 C5.5,18.2238576 5.27614237,18 5,18 C4.72385763,18 4.5,18.2238576 4.5,18.5 C4.5,18.7761424 4.72385763,19 5,19 Z M3,7 L21,7 L21,3 L3,3 L3,7 Z" id="Icon" fill="#858594"></path>
        </g>
        <g id="Assets/Side-Bar/Icon-Workflow" transform="translate(72.000000, 48.000000)">
            <rect id="Guide" fill-opacity="0" fill="#C2C2C2" x="0" y="0" width="24" height="24"></rect>
            <path d="M22,22 L2,22 C0.8954305,22 0,21.1045695 0,20 L0,5 C0,3.8954305 0.8954305,3 2,3 L22,3 C23.1045695,3 24,3.8954305 24,5 L24,20 C24,21.1045695 23.1045695,22 22,22 Z M7,5.5 C7,5.22385763 6.77614237,5 6.5,5 L2.5,5 C2.22385763,5 2,5.22385763 2,5.5 L2,19.5 C2,19.7761424 2.22385763,20 2.5,20 L6.5,20 C6.77614237,20 7,19.7761424 7,19.5 L7,5.5 Z M15,5.5 C15,5.22385763 14.7761424,5 14.5,5 L9.5,5 C9.22385763,5 9,5.22385763 9,5.5 L9,19.5 C9,19.7761424 9.22385763,20 9.5,20 L14.5,20 C14.7761424,20 15,19.7761424 15,19.5 L15,5.5 Z M22,5.5 C22,5.22385763 21.7761424,5 21.5,5 L17.5,5 C17.2238576,5 17,5.22385763 17,5.5 L17,19.5 C17,19.7761424 17.2238576,20 17.5,20 L21.5,20 C21.7761424,20 22,19.7761424 22,19.5 L22,5.5 Z" id="Icon" fill="#858594"></path>
        </g>
        <g id="Assets/Side-Bar/Icon-Conversations" transform="translate(40.000000, 48.000000)">
            <rect id="Guide" fill-opacity="0" fill="#C2C2C2" x="0" y="0" width="24" height="24"></rect>
            <path d="M16,12 C15.4477153,12 15,11.5522847 15,11 C15,10.4477153 15.4477153,10 16,10 C16.5522847,10 17,10.4477153 17,11 C17,11.5522847 16.5522847,12 16,12 M12,12 C11.4477153,12 11,11.5522847 11,11 C11,10.4477153 11.4477153,10 12,10 C12.5522847,10 13,10.4477153 13,11 C13,11.5522847 12.5522847,12 12,12 M8,12 C7.44771525,12 7,11.5522847 7,11 C7,10.4477153 7.44771525,10 8,10 C8.55228475,10 9,10.4477153 9,11 C9,11.5522847 8.55228475,12 8,12 M12,0 C5.383,0 0,4.935 0,11 C0,14.003 1.328,16.721 3.464,18.707 C3.707,18.933 3.85,19.256 3.793,19.582 C3.596,20.729 3.057,21.916 2.161,23.117 L2.096,23.205 C1.98646106,23.3573802 1.97106325,23.5581339 2.05608252,23.7254367 C2.14110179,23.8927395 2.31233895,23.9986498 2.5,24 C5.033,24 6.751,23.052 7.923,21.862 C8.173,21.607 8.546,21.535 8.892,21.62 C9.884,21.866 10.925,22 12,22 C18.617,22 24,17.065 24,11 C24,4.935 18.617,0 12,0" id="Icon" fill="#858594"></path>
        </g>
        <g id="Assets/Side-Bar/Icon-Overview" transform="translate(8.000000, 48.000000)">
            <rect id="Guide" fill-opacity="0" fill="#C2C2C2" x="0" y="0" width="24" height="24"></rect>
            <path d="M21,13 L19.118,13 L17.895,15.447 C17.7110244,15.8062341 17.3318592,16.0225074 16.929,15.998 C16.5254883,15.9687648 16.1791461,15.6997381 16.051,15.316 L14,9.162 L10.949,18.316 C10.8131792,18.7248288 10.4307996,19.0007239 10,19.0007239 C9.56920038,19.0007239 9.18682081,18.7248288 9.051,18.316 L6.815,11.606 L6.395,12.447 C6.225,12.786 5.879,13 5.5,13 L3,13 C2.44771525,13 2,12.5522847 2,12 C2,11.4477153 2.44771525,11 3,11 L4.882,11 L6.105,8.553 C6.287,8.191 6.673,7.98 7.071,8.002 C7.474,8.031 7.821,8.3 7.949,8.684 L10,14.838 L13.051,5.684 C13.1868208,5.27517116 13.5692004,4.99927607 14,4.99927607 C14.4307996,4.99927607 14.8131792,5.27517116 14.949,5.684 L17.185,12.394 L17.605,11.553 C17.775,11.214 18.121,11 18.5,11 L21,11 C21.5522847,11 22,11.4477153 22,12 C22,12.5522847 21.5522847,13 21,13 M22,2 L2,2 C0.897,2 0,2.897 0,4 L0,20 C0,21.103 0.897,22 2,22 L22,22 C23.103,22 24,21.103 24,20 L24,4 C24,2.897 23.103,2 22,2" id="Icon" fill="#858594"></path>
        </g>
        <g id="iconTabBarLogoCompact" transform="translate(180.000000, 8.000000)">
            <rect id="Bounding" fill-opacity="0" fill="#FFFFFF" x="0" y="0" width="24" height="24"></rect>
            <path d="M21.2392008,8.48193714 C19.9650955,8.04951607 18.6063586,8.65877925 18.4752007,9.04530558 C18.2733059,9.64088455 19.0516218,10.7417267 20.3257271,11.1741478 C21.6000429,11.6065688 22.7396219,11.6421478 23.0895167,10.6107793 C23.4396219,9.57920034 22.5133061,8.91435821 21.2392008,8.48193714" id="Fill-5" fill="#76C1C6"></path>
            <path d="M19.2219586,13.95379 C20.1914323,14.2828426 21.0588008,14.3102111 21.3253271,13.5251584 C21.5916429,12.7401057 20.8868008,12.234211 19.9171165,11.9049478 C18.9474323,11.5761057 17.9135375,12.0396846 17.813748,12.3335794 C17.6598533,12.7870531 18.2524849,13.6247373 19.2219586,13.95379" id="Fill-7" fill="#76C1C6"></path>
            <path d="M18.4752639,6.98991603 C18.6064218,7.37644236 19.9649481,7.98549501 21.239264,7.55328447 C22.5131587,7.1208634 23.4396851,6.45602127 23.0895798,5.42423175 C22.7396851,4.39286329 21.6001061,4.42865277 20.3257902,4.86107384 C19.0516849,5.29328438 18.2731586,6.39433706 18.4752639,6.98991603" id="Fill-8" fill="#76C1C6"></path>
            <path d="M19.9170534,4.13012644 C20.8869482,3.8010738 21.5915798,3.29496851 21.325264,2.50991585 C21.0589482,1.72507371 20.1915797,1.75244214 19.2218955,2.08128425 C18.2524217,2.4103369 17.6597901,3.24802114 17.8136849,3.70149484 C17.9134744,3.99538959 18.9475797,4.45917908 19.9170534,4.13012644" id="Fill-9" fill="#76C1C6"></path>
            <path d="M5.44086333,11.9471162 L5.44086333,5.22837912 C5.44086333,5.10080016 5.5429686,4.99890542 5.67265282,4.99890542 C6.34275811,4.99637911 7.01496866,4.99174753 7.68738974,4.98480016 C8.43391608,4.975537 9.18275822,4.98017635 9.93160035,4.99890542 C10.4231793,4.99890542 10.8636004,5.09385279 11.2461267,5.27932649 C11.6309688,5.46711597 11.9556004,5.72437914 12.2223373,6.04901073 C12.4865478,6.37364232 12.6951794,6.75385286 12.8412847,7.18501077 C12.9897057,7.618695 13.063811,8.07301081 13.063811,8.54606346 C13.063811,9.0374319 12.9897057,9.50585297 12.8412847,9.94858983 C12.6951794,10.3915372 12.4819162,10.7763793 12.2061268,11.1008004 C11.9301268,11.425432 11.6008636,11.6875373 11.2160215,11.8845899 C10.8334951,12.0816425 10.404653,12.1789057 9.93160035,12.1789057 L5.67265282,12.1789057 C5.54528439,12.1789057 5.44086333,12.0746952 5.44086333,11.9471162 M22.7014956,18.862906 L5.76086335,18.862906 C5.63328439,18.862906 5.52886334,18.7586954 5.52886334,18.6311165 L5.52886334,16.192169 C5.52886334,16.0622743 5.63328439,15.9603795 5.76086335,15.9603795 L9.93160035,15.9603795 C11.1141267,15.9603795 12.1619162,15.7586953 13.0777057,15.3551164 C13.9934953,14.9517479 14.7631795,14.4138532 15.3823374,13.7462742 C16.0036006,13.0761689 16.4766532,12.3018531 16.8010743,11.425432 C17.1257059,10.5490109 17.2880217,9.62858982 17.2880217,8.66416873 C17.2880217,7.69743185 17.1303375,6.75848444 16.814969,5.84269493 C16.4998111,4.92690542 16.0337059,4.12248433 15.4124427,3.43385273 C14.790969,2.74522112 14.0236005,2.18880005 13.107811,1.7645895 C12.1920215,1.34037896 11.132653,1.12943158 9.93160035,1.12943158 C8.45475819,1.12943158 6.98254761,1.1248 5.5149686,1.11532632 C4.20044223,1.10374737 2.88128429,1.10837895 1.55749476,1.12248422 C1.30254738,1.12711579 1.09854737,1.33343159 1.09854737,1.58837897 L1.09854737,22.8321693 C1.09854737,23.0871167 1.30486317,23.2957483 1.56212634,23.2957483 L22.7014956,23.2957483 C22.9566535,23.2957483 23.1652851,23.0871167 23.1652851,22.8321693 L23.1652851,19.3266955 C23.1652851,19.0694323 22.9566535,18.862906 22.7014956,18.862906" id="Fill-10" fill="#76C1C6"></path>
        </g>
        <g id="iconTabBarLogo">
            <rect id="Bounding" fill-opacity="0" fill="#FFFFFF" x="0" y="0" width="168" height="40"></rect>
            <path d="M32.2392008,16.4819371 C30.9650955,16.0495161 29.6063586,16.6587793 29.4752007,17.0453056 C29.2733059,17.6408846 30.0516218,18.7417267 31.3257271,19.1741478 C32.6000429,19.6065688 33.7396219,19.6421478 34.0895167,18.6107793 C34.4396219,17.5792003 33.5133061,16.9143582 32.2392008,16.4819371" id="Fill-5" fill="#76C1C6"></path>
            <path d="M30.2219586,21.95379 C31.1914323,22.2828426 32.0588008,22.3102111 32.3253271,21.5251584 C32.5916429,20.7401057 31.8868008,20.234211 30.9171165,19.9049478 C29.9474323,19.5761057 28.9135375,20.0396846 28.813748,20.3335794 C28.6598533,20.7870531 29.2524849,21.6247373 30.2219586,21.95379" id="Fill-7" fill="#76C1C6"></path>
            <path d="M29.4752639,14.989916 C29.6064218,15.3764424 30.9649481,15.985495 32.239264,15.5532845 C33.5131587,15.1208634 34.4396851,14.4560213 34.0895798,13.4242318 C33.7396851,12.3928633 32.6001061,12.4286528 31.3257902,12.8610738 C30.0516849,13.2932844 29.2731586,14.3943371 29.4752639,14.989916" id="Fill-8" fill="#76C1C6"></path>
            <path d="M30.9170534,12.1301264 C31.8869482,11.8010738 32.5915798,11.2949685 32.325264,10.5099158 C32.0589482,9.72507371 31.1915797,9.75244214 30.2218955,10.0812843 C29.2524217,10.4103369 28.6597901,11.2480211 28.8136849,11.7014948 C28.9134744,11.9953896 29.9475797,12.4591791 30.9170534,12.1301264" id="Fill-9" fill="#76C1C6"></path>
            <path d="M16.4408633,19.9471162 L16.4408633,13.2283791 C16.4408633,13.1008002 16.5429686,12.9989054 16.6726528,12.9989054 C17.3427581,12.9963791 18.0149687,12.9917475 18.6873897,12.9848002 C19.4339161,12.975537 20.1827582,12.9801763 20.9316004,12.9989054 C21.4231793,12.9989054 21.8636004,13.0938528 22.2461267,13.2793265 C22.6309688,13.467116 22.9556004,13.7243791 23.2223373,14.0490107 C23.4865478,14.3736423 23.6951794,14.7538529 23.8412847,15.1850108 C23.9897057,15.618695 24.063811,16.0730108 24.063811,16.5460635 C24.063811,17.0374319 23.9897057,17.505853 23.8412847,17.9485898 C23.6951794,18.3915372 23.4819162,18.7763793 23.2061268,19.1008004 C22.9301268,19.425432 22.6008636,19.6875373 22.2160215,19.8845899 C21.8334951,20.0816425 21.404653,20.1789057 20.9316004,20.1789057 L16.6726528,20.1789057 C16.5452844,20.1789057 16.4408633,20.0746952 16.4408633,19.9471162 M33.7014956,26.862906 L16.7608633,26.862906 C16.6332844,26.862906 16.5288633,26.7586954 16.5288633,26.6311165 L16.5288633,24.192169 C16.5288633,24.0622743 16.6332844,23.9603795 16.7608633,23.9603795 L20.9316004,23.9603795 C22.1141267,23.9603795 23.1619162,23.7586953 24.0777057,23.3551164 C24.9934953,22.9517479 25.7631795,22.4138532 26.3823374,21.7462742 C27.0036006,21.0761689 27.4766532,20.3018531 27.8010743,19.425432 C28.1257059,18.5490109 28.2880217,17.6285898 28.2880217,16.6641687 C28.2880217,15.6974318 28.1303375,14.7584844 27.814969,13.8426949 C27.4998111,12.9269054 27.0337059,12.1224843 26.4124427,11.4338527 C25.790969,10.7452211 25.0236005,10.1888 24.107811,9.7645895 C23.1920215,9.34037896 22.132653,9.12943158 20.9316004,9.12943158 C19.4547582,9.12943158 17.9825476,9.1248 16.5149686,9.11532632 C15.2004422,9.10374737 13.8812843,9.10837895 12.5574948,9.12248422 C12.3025474,9.12711579 12.0985474,9.33343159 12.0985474,9.58837897 L12.0985474,30.8321693 C12.0985474,31.0871167 12.3048632,31.2957483 12.5621263,31.2957483 L33.7014956,31.2957483 C33.9566535,31.2957483 34.1652851,31.0871167 34.1652851,30.8321693 L34.1652851,27.3266955 C34.1652851,27.0694323 33.9566535,26.862906 33.7014956,26.862906" id="Fill-10" fill="#76C1C6"></path>
            <path d="M50.6223805,20.8965689 C51.0950121,20.8965689 51.5236437,20.7982531 51.9076437,20.6012005 C52.2916437,20.4043583 52.6213279,20.1430952 52.8975385,19.8182531 C53.1731174,19.4932004 53.3851174,19.1089899 53.5326964,18.665832 C53.6804859,18.2226741 53.7543806,17.7550951 53.7543806,17.2624635 C53.7543806,16.7896214 53.6804859,16.3369898 53.5326964,15.9033055 C53.3851174,15.4702529 53.1781701,15.0906739 52.9122753,14.7660423 C52.64617,14.4409897 52.3213279,14.1852002 51.9371174,13.9976213 C51.5533279,13.8106739 51.114591,13.7172002 50.6223805,13.7172002 C49.8735383,13.6976212 49.1253278,13.6925686 48.3769067,13.7022528 C47.7185909,13.7110949 47.0604856,13.7157265 46.4023803,13.7167791 C46.2526961,13.7172002 46.1314329,13.8382528 46.1314329,13.9881476 L46.1314329,20.6249899 C46.1314329,20.7750952 46.2531172,20.8965689 46.4030119,20.8965689 L50.6223805,20.8965689 Z M41.7882749,29.5913061 L41.7882749,10.7736211 C41.7882749,10.2601474 42.2019591,9.84077898 42.7156433,9.8361474 C43.8819592,9.82562109 45.0451171,9.82393687 46.2053277,9.83172635 C47.6724856,9.84183161 49.1451173,9.84646319 50.6223805,9.84646319 C51.8236437,9.84646319 52.8825911,10.0584632 53.7985911,10.4818316 C54.7143806,10.9056211 55.4828017,11.4620422 56.1032228,12.1510949 C56.7236439,12.8407791 57.1912228,13.6430949 57.5068018,14.559095 C57.8215387,15.4748845 57.9792229,16.4157266 57.9792229,17.3805688 C57.9792229,18.3460425 57.8166966,19.2668846 57.4918544,20.1430952 C57.1668018,21.0199373 56.6941702,21.7932005 56.0735386,22.4624637 C55.4531175,23.1323585 54.684907,23.6692006 53.7689069,24.0727795 C52.8531174,24.4767796 51.8042753,24.6784638 50.6223805,24.6784638 L46.4916435,24.6784638 C46.3415382,24.6784638 46.2200645,24.7999375 46.2200645,24.9498322 L46.2200645,29.5913061 C46.2200645,30.1087798 45.8004856,30.5283588 45.2828013,30.5283588 L42.7253275,30.5283588 C42.2078538,30.5283588 41.7882749,30.1087798 41.7882749,29.5913061 L41.7882749,29.5913061 Z" id="Fill-11" fill="#3B6DBA"></path>
            <path d="M71.6671603,13.7465897 L64.8650547,13.7465897 C64.60316,13.7465897 64.3907389,13.9592212 64.3907389,14.221116 L64.3907389,17.4674319 C64.3907389,17.7295372 64.60316,17.9419583 64.8650547,17.9419583 L71.1353708,17.9419583 C71.653055,17.9419583 72.072634,18.3617477 72.072634,18.879432 L72.072634,20.8752215 C72.072634,21.3929058 71.653055,21.8126952 71.1353708,21.8126952 L64.8650547,21.8126952 C64.60316,21.8126952 64.3907389,22.0249058 64.3907389,22.2870111 L64.3907389,26.065327 C64.3907389,26.3272217 64.60316,26.5398533 64.8650547,26.5398533 L71.9033708,26.5398533 C72.421055,26.5398533 72.8408445,26.9594323 72.8408445,27.476906 L72.8408445,29.6209061 C72.8408445,30.1385903 72.421055,30.5579588 71.9033708,30.5579588 L60.8665283,30.5579588 C60.348844,30.5579588 59.9292651,30.1385903 59.9292651,29.6209061 L59.9292651,10.8133264 C59.9292651,10.2956422 60.348844,9.87627372 60.8665283,9.87627372 L71.6671603,9.87627372 C72.1848445,9.87627372 72.6042129,10.2956422 72.6042129,10.8133264 L72.6042129,12.809537 C72.6042129,13.3270107 72.1848445,13.7465897 71.6671603,13.7465897" id="Fill-12" fill="#3B6DBA"></path>
            <path d="M74.9677078,12.7797896 L74.9677078,10.8132632 C74.9677078,10.295579 75.3872867,9.87621056 75.9047604,9.87621056 L89.3352873,9.87621056 C89.8529715,9.87621056 90.27234,10.295579 90.27234,10.8132632 L90.27234,12.7797896 C90.27234,13.2972633 89.8529715,13.7168423 89.3352873,13.7168423 L85.2632871,13.7168423 C84.9946555,13.7168423 84.7769713,13.934737 84.7769713,14.2035792 L84.7769713,29.6208429 C84.7769713,30.1385272 84.3573923,30.5578956 83.8397081,30.5578956 L81.4300238,30.5578956 C80.9123396,30.5578956 80.4927606,30.1385272 80.4927606,29.6208429 L80.4927606,14.2035792 C80.4927606,13.934737 80.2750764,13.7168423 80.0064448,13.7168423 L75.9047604,13.7168423 C75.3872867,13.7168423 74.9677078,13.2972633 74.9677078,12.7797896" id="Fill-13" fill="#3B6DBA"></path>
            <path d="M96.9281507,26.5988849 L104.593414,26.5988849 C104.859098,26.5988849 105.074467,26.8142533 105.074467,27.0799376 L105.074467,30.0769903 C105.074467,30.3426745 104.859098,30.558043 104.593414,30.558043 L92.4961506,30.558043 C92.2304663,30.558043 92.0150979,30.3426745 92.0150979,30.0769903 L92.0150979,10.3572001 C92.0150979,10.0915158 92.2304663,9.8761474 92.4961506,9.8761474 L95.9660454,9.8761474 C96.2317297,9.8761474 96.4470981,10.0915158 96.4470981,10.3572001 L96.4470981,26.1178323 C96.4470981,26.3835165 96.6624665,26.5988849 96.9281507,26.5988849" id="Fill-14" fill="#3B6DBA"></path>
            <path d="M117.749099,27.979306 L117.749099,29.6207798 C117.749099,30.138464 117.32952,30.558043 116.812046,30.558043 L108.404467,30.558043 C107.886783,30.558043 107.467204,30.138464 107.467204,29.6207798 L107.467204,27.979306 C107.467204,27.4618323 107.886783,27.0422533 108.404467,27.0422533 L110.012467,27.0422533 C110.222151,27.0422533 110.392257,26.8719376 110.392257,26.6624639 L110.392257,13.6828844 C110.392257,13.4734107 110.222151,13.303516 110.012467,13.303516 L108.640678,13.303516 C108.123204,13.303516 107.703625,12.8837265 107.703625,12.3660422 L107.703625,10.8132001 C107.703625,10.2957264 108.123204,9.8761474 108.640678,9.8761474 L116.575415,9.8761474 C117.093309,9.8761474 117.512678,10.2957264 117.512678,10.8132001 L117.512678,12.3660422 C117.512678,12.8837265 117.093309,13.303516 116.575415,13.303516 L115.203625,13.303516 C114.994151,13.303516 114.824257,13.4734107 114.824257,13.6828844 L114.824257,26.6624639 C114.824257,26.8719376 114.994151,27.0422533 115.203625,27.0422533 L116.812046,27.0422533 C117.32952,27.0422533 117.749099,27.4618323 117.749099,27.979306" id="Fill-15" fill="#3B6DBA"></path>
            <path d="M125.282868,19.2356425 L125.282868,29.6209061 C125.282868,30.1385903 124.863289,30.5579588 124.345815,30.5579588 L121.817815,30.5579588 C121.300341,30.5579588 120.880552,30.1385903 120.880552,29.6209061 L120.880552,10.7246948 C120.880552,10.2070106 121.300341,9.78764214 121.817815,9.78764214 L121.876131,9.78764214 C122.127499,9.78764214 122.368341,9.88848425 122.544552,10.0678527 L133.532552,21.2512215 C133.660131,21.3811163 133.880763,21.291011 133.880763,21.1089057 L133.880763,10.8133264 C133.880763,10.2956422 134.300342,9.87606319 134.817815,9.87606319 L137.375289,9.87606319 C137.892973,9.87606319 138.312552,10.2956422 138.312552,10.8133264 L138.312552,29.6798535 C138.312552,30.1975377 137.892973,30.6173272 137.375289,30.6173272 C137.124131,30.6173272 136.88371,30.5164851 136.7075,30.3377482 L125.630868,19.0931162 C125.503289,18.963432 125.282868,19.0539583 125.282868,19.2356425" id="Fill-16" fill="#3B6DBA"></path>
            <path d="M154.203121,13.7465897 L147.401016,13.7465897 C147.139121,13.7465897 146.9267,13.9592212 146.9267,14.221116 L146.9267,17.4674319 C146.9267,17.7295372 147.139121,17.9419583 147.401016,17.9419583 L153.671332,17.9419583 C154.189016,17.9419583 154.608595,18.3617477 154.608595,18.879432 L154.608595,20.8752215 C154.608595,21.3929058 154.189016,21.8126952 153.671332,21.8126952 L147.401016,21.8126952 C147.139121,21.8126952 146.9267,22.0249058 146.9267,22.2870111 L146.9267,26.065327 C146.9267,26.3272217 147.139121,26.5398533 147.401016,26.5398533 L154.439332,26.5398533 C154.957016,26.5398533 155.376595,26.9594323 155.376595,27.476906 L155.376595,29.6209061 C155.376595,30.1385903 154.957016,30.5579588 154.439332,30.5579588 L143.402489,30.5579588 C142.884805,30.5579588 142.465226,30.1385903 142.465226,29.6209061 L142.465226,10.8133264 C142.465226,10.2956422 142.884805,9.87627372 143.402489,9.87627372 L154.203121,9.87627372 C154.720806,9.87627372 155.140174,10.2956422 155.140174,10.8133264 L155.140174,12.809537 C155.140174,13.3270107 154.720806,13.7465897 154.203121,13.7465897" id="Fill-17" fill="#3B6DBA"></path>
        </g>
        <g id="iconConversationChatCellFollowUp" transform="translate(44.000000, 112.000000)">
            <polygon id="Bounding" fill-opacity="0" fill="#858594" points="0 0 10 0 10 10 0 10"></polygon>
            <path d="M9.61592159,8 C9.44979801,8.00089761 9.3023681,7.89608234 9.25202188,7.74127977 C8.74028153,6.11906676 7.32243796,5.3351045 5.00501086,5.33450475 L5.00501086,7.11400779 C5.00490939,7.28660119 4.90274245,7.44356772 4.74288103,7.516737 C4.58301961,7.58990628 4.39430561,7.56607724 4.2586973,7.4555988 L0.163729523,4.12085485 C0.0599918246,4.03642409 0,3.91127458 0,3.77929716 C0,3.64731973 0.0599918246,3.52217022 0.163729523,3.43773946 L4.2586973,0.103106579 C4.39430245,-0.00736929431 4.58301118,-0.0312000159 4.74287076,0.0419636585 C4.90273033,0.115127333 5.00490059,0.272085993 5.00501086,0.44467538 L5.00501086,2.22480038 C8.24755511,2.38622201 9.88111699,4.30504478 9.9996303,7.60586952 C10.0042204,7.70842942 9.9659101,7.80839647 9.89352168,7.88274992 C9.82113326,7.95710336 9.72090636,7.99943415 9.61592159,8 Z" id="Path" fill="#FFFFFF" fill-rule="nonzero"></path>
        </g>
        <g id="iconConversationChatCellFollowUpSelected" transform="translate(62.000000, 112.000000)" fill="#858594">
            <polygon id="Bounding" fill-opacity="0" points="0 0 10 0 10 10 0 10"></polygon>
            <path d="M9.61592159,8 C9.44979801,8.00089761 9.3023681,7.89608234 9.25202188,7.74127977 C8.74028153,6.11906676 7.32243796,5.3351045 5.00501086,5.33450475 L5.00501086,7.11400779 C5.00490939,7.28660119 4.90274245,7.44356772 4.74288103,7.516737 C4.58301961,7.58990628 4.39430561,7.56607724 4.2586973,7.4555988 L0.163729523,4.12085485 C0.0599918246,4.03642409 0,3.91127458 0,3.77929716 C0,3.64731973 0.0599918246,3.52217022 0.163729523,3.43773946 L4.2586973,0.103106579 C4.39430245,-0.00736929431 4.58301118,-0.0312000159 4.74287076,0.0419636585 C4.90273033,0.115127333 5.00490059,0.272085993 5.00501086,0.44467538 L5.00501086,2.22480038 C8.24755511,2.38622201 9.88111699,4.30504478 9.9996303,7.60586952 C10.0042204,7.70842942 9.9659101,7.80839647 9.89352168,7.88274992 C9.82113326,7.95710336 9.72090636,7.99943415 9.61592159,8 Z" id="Path"></path>
        </g>
        <g id="iconConversationChatCellUnread" transform="translate(8.000000, 112.000000)">
            <polygon id="Bounding" fill-opacity="0" fill="#858594" points="0 0 10 0 10 10 0 10"></polygon>
            <path d="M5,9.16801094 C4.67180387,9.16361768 4.34471699,9.1288814 4.02291667,9.06424572 C3.87095699,9.03824789 3.71514259,9.07861811 3.59491667,9.17513698 C2.97985097,9.62703163 2.25769709,9.91089144 1.49958333,9.99875775 C1.41162652,10.0079774 1.32631182,9.96531874 1.28090526,9.88941544 C1.23549869,9.81351214 1.23825037,9.71815535 1.28795833,9.64499754 C1.58094357,9.28004596 1.79129976,8.85588094 1.90452083,8.40175275 C1.92738277,8.27775221 1.87892529,8.15138546 1.77902083,8.0744756 C0.673303982,7.25289279 0.0151531117,5.96158922 0,4.58400547 C0,2.05546805 2.23858333,0 5,0 C7.76141667,0 10,2.05546805 10,4.58400547 C10,7.11254288 7.76147917,9.16801094 5,9.16801094 Z" id="Path" fill="#FFFFFF"></path>
        </g>
        <g id="iconConversationChatCellUnreadSelected" transform="translate(26.000000, 112.000000)" fill="#858594">
            <polygon id="Bounding" fill-opacity="0" points="0 0 10 0 10 10 0 10"></polygon>
            <path d="M5,9.16801094 C4.67180387,9.16361768 4.34471699,9.1288814 4.02291667,9.06424572 C3.87095699,9.03824789 3.71514259,9.07861811 3.59491667,9.17513698 C2.97985097,9.62703163 2.25769709,9.91089144 1.49958333,9.99875775 C1.41162652,10.0079774 1.32631182,9.96531874 1.28090526,9.88941544 C1.23549869,9.81351214 1.23825037,9.71815535 1.28795833,9.64499754 C1.58094357,9.28004596 1.79129976,8.85588094 1.90452083,8.40175275 C1.92738277,8.27775221 1.87892529,8.15138546 1.77902083,8.0744756 C0.673303982,7.25289279 0.0151531117,5.96158922 0,4.58400547 C0,2.05546805 2.23858333,0 5,0 C7.76141667,0 10,2.05546805 10,4.58400547 C10,7.11254288 7.76147917,9.16801094 5,9.16801094 Z" id="Path"></path>
        </g>
        <g id="iconTableViewCellAccessoryDisclosureIndicator" transform="translate(40.000000, 230.000000)">
            <polygon id="Bounding" fill-opacity="0" fill="url(#linearGradient-24)" points="0 0 8 0 8 12 0 12"></polygon>
            <path d="M7.15685425,5.29289369 C7.54737854,5.68341798 7.54737854,6.31658296 7.15685425,6.70710725 L2.20710678,11.6568547 C1.81658249,12.047379 1.18341751,12.047379 0.792893219,11.6568547 C0.402368927,11.2663304 0.402368927,10.6331654 0.792893219,10.2426412 L5.03553391,6.00000047 L0.792893219,1.75735978 C0.402368927,1.36683549 0.402368927,0.733670511 0.792893219,0.343146219 C1.18341751,-0.0473780729 1.81658249,-0.0473780729 2.20710678,0.343146219 L7.15685425,5.29289369 Z" id="Icon" fill="#727372"></path>
        </g>
        <g id="iconTableViewCellAccessoryDisclosureIndicatorActive" transform="translate(56.000000, 230.000000)">
            <polygon id="Bounding" fill-opacity="0" fill="url(#linearGradient-24)" points="0 0 8 0 8 12 0 12"></polygon>
            <path d="M7.15685425,5.29289369 C7.54737854,5.68341798 7.54737854,6.31658296 7.15685425,6.70710725 L2.20710678,11.6568547 C1.81658249,12.047379 1.18341751,12.047379 0.792893219,11.6568547 C0.402368927,11.2663304 0.402368927,10.6331654 0.792893219,10.2426412 L5.03553391,6.00000047 L0.792893219,1.75735978 C0.402368927,1.36683549 0.402368927,0.733670511 0.792893219,0.343146219 C1.18341751,-0.0473780729 1.81658249,-0.0473780729 2.20710678,0.343146219 L7.15685425,5.29289369 Z" id="Icon" fill="#FFFFFF"></path>
        </g>
        <g id="iconTableViewCellAccessoryPopUp" transform="translate(8.000000, 230.000000)">
            <polygon id="Bounding" fill-opacity="0" fill="url(#linearGradient-25)" points="0 0 8 0 8 16 0 16"></polygon>
            <path d="M0.464466219,10.8284272 C0.854990511,10.4379029 1.48815549,10.4379029 1.87867978,10.8284272 L4.00000012,12.9497475 L6.12132047,10.8284272 C6.51184476,10.4379029 7.14500974,10.4379029 7.53553403,10.8284272 C7.92605832,11.2189514 7.92605832,11.8521164 7.53553403,12.2426407 L4.70710691,15.0710678 C4.31658261,15.4615921 3.68341764,15.4615921 3.29289334,15.0710678 L0.464466219,12.2426407 C0.0739419271,11.8521164 0.0739419271,11.2189514 0.464466219,10.8284272 Z M3.29289334,0.928932219 C3.68341764,0.538407927 4.31658261,0.538407927 4.70710691,0.928932219 L7.53553403,3.75735934 C7.92605832,4.14788364 7.92605832,4.78104861 7.53553403,5.17157291 C7.14500974,5.5620972 6.51184476,5.5620972 6.12132047,5.17157291 L4.00000012,3.05025256 L1.87867978,5.17157291 C1.48815549,5.5620972 0.854990511,5.5620972 0.464466219,5.17157291 C0.0739419271,4.78104861 0.0739419271,4.14788364 0.464466219,3.75735934 L3.29289334,0.928932219 Z" id="Icon" fill="#727372"></path>
        </g>
        <g id="iconTableViewCellAccessoryPopUpActive" transform="translate(24.000000, 230.000000)">
            <polygon id="Bounding" fill-opacity="0" fill="url(#linearGradient-25)" points="0 0 8 0 8 16 0 16"></polygon>
            <path d="M0.464466219,10.8284272 C0.854990511,10.4379029 1.48815549,10.4379029 1.87867978,10.8284272 L4.00000012,12.9497475 L6.12132047,10.8284272 C6.51184476,10.4379029 7.14500974,10.4379029 7.53553403,10.8284272 C7.92605832,11.2189514 7.92605832,11.8521164 7.53553403,12.2426407 L4.70710691,15.0710678 C4.31658261,15.4615921 3.68341764,15.4615921 3.29289334,15.0710678 L0.464466219,12.2426407 C0.0739419271,11.8521164 0.0739419271,11.2189514 0.464466219,10.8284272 Z M3.29289334,0.928932219 C3.68341764,0.538407927 4.31658261,0.538407927 4.70710691,0.928932219 L7.53553403,3.75735934 C7.92605832,4.14788364 7.92605832,4.78104861 7.53553403,5.17157291 C7.14500974,5.5620972 6.51184476,5.5620972 6.12132047,5.17157291 L4.00000012,3.05025256 L1.87867978,5.17157291 C1.48815549,5.5620972 0.854990511,5.5620972 0.464466219,5.17157291 C0.0739419271,4.78104861 0.0739419271,4.14788364 0.464466219,3.75735934 L3.29289334,0.928932219 Z" id="Icon" fill="#FFFFFF"></path>
        </g>
    </g>
</svg>