<?xml version="1.0" encoding="UTF-8"?>
<svg width="512px" height="512px" viewBox="0 0 512 512" version="1.1" xmlns="http://www.w3.org/2000/svg" xmlns:xlink="http://www.w3.org/1999/xlink">
    <!-- Generator: Sketch 63.1 (92452) - https://sketch.com -->
    <title>sprite</title>
    <desc>Created with Sketch.</desc>
    <g id="sprite" stroke="none" stroke-width="1" fill="none" fill-rule="evenodd">
        <g id="Assets/Side-Bar/Icon-Settings" transform="translate(200.000000, 80.000000)">
            <rect id="Guide" fill-opacity="0" fill="#C2C2C2" x="0" y="0" width="24" height="24"></rect>
            <path d="M22.7767556,14.4403749 L21.1867556,13.1303749 C21.2386145,12.7492109 21.2653388,12.3650479 21.2667556,11.9803749 L21.2667556,11.9803749 C21.2653388,11.5957019 21.2386145,11.2115388 21.1867556,10.8303749 L22.7767556,9.52037487 C23.5393496,8.90751501 23.7466519,7.83292775 23.2667556,6.98037487 L22.0867556,4.98037487 C21.5964802,4.13166663 20.5633923,3.76331151 19.6467556,4.11037487 L17.7167556,4.83037487 C17.1016998,4.36087605 16.4296931,3.97111213 15.7167556,3.67037487 L15.3867556,1.67037487 C15.223885,0.696240851 14.3743188,-0.0131468868 13.3867556,0.000184803838 L11.0867556,0.000184803838 C10.0991924,-0.0131468868 9.24962625,0.696240851 9.08675561,1.67037487 L8.75675561,3.67037487 C8.04381813,3.97111213 7.37181138,4.36087605 6.75675561,4.83037487 L4.88675561,4.11037487 C3.97011897,3.76331151 2.93703107,4.13166663 2.44675561,4.98037487 L1.26675561,6.98037487 C0.780054808,7.82591153 0.974434943,8.89922793 1.72675561,9.52037487 L3.31675561,10.8303749 C3.27492301,11.2121996 3.25822038,11.5963602 3.26675561,11.9803749 L3.26675561,11.9803749 C3.26817238,12.3650479 3.29489677,12.7492109 3.34675561,13.1303749 L1.75675561,14.4403749 C0.994161592,15.0532347 0.786859325,16.127822 1.26675561,16.9803749 L2.41675561,18.9803749 C2.90703107,19.8290831 3.94011897,20.1974382 4.85675561,19.8503749 L6.78675561,19.1303749 C7.40181138,19.5998737 8.07381813,19.9896376 8.78675561,20.2903749 L9.11675561,22.2903749 C9.27962625,23.2645089 10.1291924,23.9738966 11.1167556,23.9605649 L13.4167556,23.9605649 C14.4043188,23.9738966 15.253885,23.2645089 15.4167556,22.2903749 L15.7467556,20.2903749 C16.4596931,19.9896376 17.1316998,19.5998737 17.7467556,19.1303749 L19.6767556,19.8503749 C20.5847763,20.1805793 21.5990306,19.8144378 22.0867556,18.9803749 L23.2667556,16.9803749 C23.7466519,16.127822 23.5393496,15.0532347 22.7767556,14.4403749 Z M12.2667556,15.9803749 C10.0576166,15.9803749 8.26675561,14.1895139 8.26675561,11.9803749 C8.26675561,9.77123587 10.0576166,7.98037487 12.2667556,7.98037487 C14.4758946,7.98037487 16.2667556,9.77123587 16.2667556,11.9803749 C16.2667556,13.0412408 15.8453282,14.0586565 15.0951827,14.808802 C14.3450372,15.5589475 13.3276216,15.9803749 12.2667556,15.9803749 Z" id="Icon" fill="#FFFFFF"></path>
        </g>
        <g id="Assets/Side-Bar/Icon-Services" transform="translate(168.000000, 80.000000)">
            <rect id="Guide" fill-opacity="0" fill="#C2C2C2" x="0" y="0" width="24" height="24"></rect>
            <path d="M23.42,8.29 L20.57,5.78 L19.05,2.29 L15.27,1.93 L12,0 L8.73,1.93 L5,2.29 L3.43,5.78 L0.58,8.29 L1.41,12 L0.58,15.71 L3.43,18.22 L5,21.71 L8.78,22.07 L9.78,22.67 L9.78,22.67 L12,24 L14.26,22.67 L14.26,22.67 L15.26,22.07 L19.04,21.71 L20.56,18.22 L23.41,15.71 L22.59,12 L23.42,8.29 Z M13,17 L13,18 C13,18.5522847 12.5522847,19 12,19 C11.4477153,19 11,18.5522847 11,18 L11,17 L9.5,17 C8.94771525,17 8.5,16.5522847 8.5,16 C8.5,15.4477153 8.94771525,15 9.5,15 L12.82,15 C13.4208488,15.0461632 13.9469872,14.6002833 14,14 C13.9469872,13.3997167 13.4208488,12.9538368 12.82,13 L11.18,13 C9.47528146,13.0448765 8.05441939,11.7044406 8,10 C8.03701543,8.35872252 9.35872252,7.03701543 11,7 L11,6 C11,5.44771525 11.4477153,5 12,5 C12.5522847,5 13,5.44771525 13,6 L13,7 L14,7 C14.5522847,7 15,7.44771525 15,8 C15,8.55228475 14.5522847,9 14,9 L11.18,9 C10.5791512,8.9538368 10.0530128,9.39971674 10,10 C10.0530128,10.6002833 10.5791512,11.0461632 11.18,11 L12.82,11 C14.5247185,10.9551235 15.9455806,12.2955594 16,14 C15.9629846,15.6412775 14.6412775,16.9629846 13,17 Z" id="Icon" fill="#FFFFFF"></path>
        </g>
        <g id="Assets/Side-Bar/Icon-Clients" transform="translate(136.000000, 80.000000)">
            <rect id="Guide" fill-opacity="0" fill="#C2C2C2" x="0" y="0" width="24" height="24"></rect>
            <path d="M20.8288219,15.1593378 C19.3378858,14.73017 18.878142,14.3227921 18.7645908,13.5658271 C18.7424345,13.4180342 18.8107498,13.2778204 18.9095301,13.1679231 C19.4052779,12.6127523 19.6554598,11.0666111 19.6554598,10.6222849 C20.0210392,10.1097467 20.0801227,9.7933183 20.2721442,8.96435165 C20.4170835,8.34096873 20.1068949,8.09843678 19.9444152,8.0169612 C19.896197,7.98963526 19.8693942,7.93462392 19.877023,7.87864219 C20.5758705,4.5722495 18.6085734,3.34822103 17.9826572,3.46569745 C15.7707173,2.49935918 14.6739792,3.20895463 14.0397543,4.03697389 C12.998407,4.43772006 13.0002534,6.69156195 13.3482923,7.86064177 C13.3690929,7.92385542 13.3405381,7.99304474 13.2818234,8.02169815 C13.1147277,8.10980546 12.8202332,8.35707437 12.9614798,8.96529904 C13.1535013,9.7933183 13.2125848,10.1097467 13.5781642,10.6222849 C13.5781642,11.0675585 13.8283461,12.6118049 14.3240939,13.1669757 C14.4228741,13.2778204 14.4911895,13.4180342 14.4690331,13.5658271 C14.355482,14.3227921 13.8957382,14.7311174 12.4048021,15.1593378 C9.65372498,15.9494615 9.26414292,17.3137037 9.23366318,20.5177783 C9.23269471,20.6444163 9.28077491,20.766268 9.36734069,20.8565253 C9.45390646,20.9467826 9.57186619,20.9980515 9.6952681,20.9990526 L23.5383559,20.9990526 C23.7940768,20.9990526 24.0027156,20.7811528 23.9999733,20.5177783 C23.9694811,17.3137037 23.579899,15.9494615 20.8288219,15.1593378 M8.31234409,20.5281996 C8.31183842,20.7881831 8.10686169,20.9989585 7.8535235,21 L0.46161927,21 C0.338555458,21 0.220585098,20.9495771 0.13391322,20.8599208 C0.0472413429,20.7702644 -0.000955364106,20.6488023 1.43547328e-05,20.5225152 C0.0295709143,17.3155985 0.419152978,15.9504089 3.17207647,15.1602852 C4.49407059,14.7794343 5.2363075,14.2290004 5.46710257,13.5809853 C5.49664433,13.497615 5.43571444,13.4114025 5.35078186,13.4009812 C4.51991963,13.2891891 3.61797253,12.9017064 3.23392955,12.723597 C3.12582627,12.6749579 3.07386051,12.5478859 3.11576248,12.4346429 C3.27916538,11.9770533 3.67890243,10.79471 3.90231205,9.63510409 C4.21065425,8.0368564 3.15361287,6.80619619 4.23004104,4.87920401 C4.46452882,4.45951004 5.04336283,3.46285528 6.46136769,3.73665112 C7.69196696,2.92757967 10.1208542,3.30274629 10.8326262,5.51206083 C11.3459144,7.00230602 10.6027543,8.26801967 10.8658606,9.63510409 C11.0523431,10.6042845 11.0754226,12.2688496 11.0773137,12.7899143 C11.0791903,12.8879949 11.0190958,12.9760956 10.9286369,13.0078141 C10.6535292,13.1082375 10.037768,13.3176108 9.4192372,13.4000338 C9.33338144,13.4114025 9.27152836,13.4985624 9.30199331,13.5819327 C9.44323989,13.9788893 9.77835432,14.3398451 10.3202611,14.6467996 C10.4707395,14.7320647 10.4827408,14.9528067 10.3378015,15.0484932 C8.62530219,16.1711508 8.33819313,17.8679272 8.31234409,20.5281996" id="Icon" fill="#FFFFFF"></path>
        </g>
        <g id="Assets/Side-Bar/Icon-Appointments" transform="translate(104.000000, 80.000000)">
            <rect id="Guide" fill-opacity="0" fill="#C2C2C2" x="0" y="0" width="24" height="24"></rect>
            <path d="M21.5,1 C22.327,1 23,1.673 23,2.5 L23,21.5 C23,22.327 22.327,23 21.5,23 L2.5,23 C1.673,23 1,22.327 1,21.5 L1,2.5 C1,1.673 1.673,1 2.5,1 L21.5,1 Z M19,11 C19.2761424,11 19.5,10.7761424 19.5,10.5 C19.5,10.2238576 19.2761424,10 19,10 C18.7238576,10 18.5,10.2238576 18.5,10.5 C18.5,10.7761424 18.7238576,11 19,11 Z M19,15 C19.2761424,15 19.5,14.7761424 19.5,14.5 C19.5,14.2238576 19.2761424,14 19,14 C18.7238576,14 18.5,14.2238576 18.5,14.5 C18.5,14.7761424 18.7238576,15 19,15 Z M19,19 C19.2761424,19 19.5,18.7761424 19.5,18.5 C19.5,18.2238576 19.2761424,18 19,18 C18.7238576,18 18.5,18.2238576 18.5,18.5 C18.5,18.7761424 18.7238576,19 19,19 Z M15,10.5 C15,10.7761424 15.2238576,11 15.5,11 C15.7761424,11 16,10.7761424 16,10.5 C16,10.2238576 15.7761424,10 15.5,10 C15.2238576,10 15,10.2238576 15,10.5 Z M15.5,16 C16.3284271,16 17,15.3284271 17,14.5 C17,13.6715729 16.3284271,13 15.5,13 C14.6715729,13 14,13.6715729 14,14.5 C14,15.3284271 14.6715729,16 15.5,16 Z M15.5,19 C15.7761424,19 16,18.7761424 16,18.5 C16,18.2238576 15.7761424,18 15.5,18 C15.2238576,18 15,18.2238576 15,18.5 C15,18.7761424 15.2238576,19 15.5,19 Z M12,11 C12.2761424,11 12.5,10.7761424 12.5,10.5 C12.5,10.2238576 12.2761424,10 12,10 C11.7238576,10 11.5,10.2238576 11.5,10.5 C11.5,10.7761424 11.7238576,11 12,11 Z M12,15 C12.2761424,15 12.5,14.7761424 12.5,14.5 C12.5,14.2238576 12.2761424,14 12,14 C11.7238576,14 11.5,14.2238576 11.5,14.5 C11.5,14.7761424 11.7238576,15 12,15 Z M12,19 C12.2761424,19 12.5,18.7761424 12.5,18.5 C12.5,18.2238576 12.2761424,18 12,18 C11.7238576,18 11.5,18.2238576 11.5,18.5 C11.5,18.7761424 11.7238576,19 12,19 Z M8.5,11 C8.77614237,11 9,10.7761424 9,10.5 C9,10.2238576 8.77614237,10 8.5,10 C8.22385763,10 8,10.2238576 8,10.5 C8,10.7761424 8.22385763,11 8.5,11 Z M8.5,15 C8.77614237,15 9,14.7761424 9,14.5 C9,14.2238576 8.77614237,14 8.5,14 C8.22385763,14 8,14.2238576 8,14.5 C8,14.7761424 8.22385763,15 8.5,15 Z M8.5,19 C8.77614237,19 9,18.7761424 9,18.5 C9,18.2238576 8.77614237,18 8.5,18 C8.22385763,18 8,18.2238576 8,18.5 C8,18.7761424 8.22385763,19 8.5,19 Z M5,11 C5.27614237,11 5.5,10.7761424 5.5,10.5 C5.5,10.2238576 5.27614237,10 5,10 C4.72385763,10 4.5,10.2238576 4.5,10.5 C4.5,10.7761424 4.72385763,11 5,11 Z M5,15 C5.27614237,15 5.5,14.7761424 5.5,14.5 C5.5,14.2238576 5.27614237,14 5,14 C4.72385763,14 4.5,14.2238576 4.5,14.5 C4.5,14.7761424 4.72385763,15 5,15 Z M5,19 C5.27614237,19 5.5,18.7761424 5.5,18.5 C5.5,18.2238576 5.27614237,18 5,18 C4.72385763,18 4.5,18.2238576 4.5,18.5 C4.5,18.7761424 4.72385763,19 5,19 Z M3,7 L21,7 L21,3 L3,3 L3,7 Z" id="Icon" fill="#FFFFFF"></path>
        </g>
        <g id="Assets/Side-Bar/Icon-Workflow" transform="translate(72.000000, 80.000000)">
            <rect id="Guide" fill-opacity="0" fill="#C2C2C2" x="0" y="0" width="24" height="24"></rect>
            <path d="M22,22 L2,22 C0.8954305,22 0,21.1045695 0,20 L0,5 C0,3.8954305 0.8954305,3 2,3 L22,3 C23.1045695,3 24,3.8954305 24,5 L24,20 C24,21.1045695 23.1045695,22 22,22 Z M7,5.5 C7,5.22385763 6.77614237,5 6.5,5 L2.5,5 C2.22385763,5 2,5.22385763 2,5.5 L2,19.5 C2,19.7761424 2.22385763,20 2.5,20 L6.5,20 C6.77614237,20 7,19.7761424 7,19.5 L7,5.5 Z M15,5.5 C15,5.22385763 14.7761424,5 14.5,5 L9.5,5 C9.22385763,5 9,5.22385763 9,5.5 L9,19.5 C9,19.7761424 9.22385763,20 9.5,20 L14.5,20 C14.7761424,20 15,19.7761424 15,19.5 L15,5.5 Z M22,5.5 C22,5.22385763 21.7761424,5 21.5,5 L17.5,5 C17.2238576,5 17,5.22385763 17,5.5 L17,19.5 C17,19.7761424 17.2238576,20 17.5,20 L21.5,20 C21.7761424,20 22,19.7761424 22,19.5 L22,5.5 Z" id="Icon" fill="#FFFFFF"></path>
        </g>
        <g id="Assets/Side-Bar/Icon-Conversations" transform="translate(40.000000, 80.000000)">
            <rect id="Guide" fill-opacity="0" fill="#C2C2C2" x="0" y="0" width="24" height="24"></rect>
            <path d="M16,12 C15.4477153,12 15,11.5522847 15,11 C15,10.4477153 15.4477153,10 16,10 C16.5522847,10 17,10.4477153 17,11 C17,11.5522847 16.5522847,12 16,12 M12,12 C11.4477153,12 11,11.5522847 11,11 C11,10.4477153 11.4477153,10 12,10 C12.5522847,10 13,10.4477153 13,11 C13,11.5522847 12.5522847,12 12,12 M8,12 C7.44771525,12 7,11.5522847 7,11 C7,10.4477153 7.44771525,10 8,10 C8.55228475,10 9,10.4477153 9,11 C9,11.5522847 8.55228475,12 8,12 M12,0 C5.383,0 0,4.935 0,11 C0,14.003 1.328,16.721 3.464,18.707 C3.707,18.933 3.85,19.256 3.793,19.582 C3.596,20.729 3.057,21.916 2.161,23.117 L2.096,23.205 C1.98646106,23.3573802 1.97106325,23.5581339 2.05608252,23.7254367 C2.14110179,23.8927395 2.31233895,23.9986498 2.5,24 C5.033,24 6.751,23.052 7.923,21.862 C8.173,21.607 8.546,21.535 8.892,21.62 C9.884,21.866 10.925,22 12,22 C18.617,22 24,17.065 24,11 C24,4.935 18.617,0 12,0" id="Icon" fill="#FFFFFF"></path>
        </g>
        <g id="Assets/Side-Bar/Icon-Overview" transform="translate(8.000000, 80.000000)">
            <rect id="Guide" fill-opacity="0" fill="#C2C2C2" x="0" y="0" width="24" height="24"></rect>
            <path d="M21,13 L19.118,13 L17.895,15.447 C17.7110244,15.8062341 17.3318592,16.0225074 16.929,15.998 C16.5254883,15.9687648 16.1791461,15.6997381 16.051,15.316 L14,9.162 L10.949,18.316 C10.8131792,18.7248288 10.4307996,19.0007239 10,19.0007239 C9.56920038,19.0007239 9.18682081,18.7248288 9.051,18.316 L6.815,11.606 L6.395,12.447 C6.225,12.786 5.879,13 5.5,13 L3,13 C2.44771525,13 2,12.5522847 2,12 C2,11.4477153 2.44771525,11 3,11 L4.882,11 L6.105,8.553 C6.287,8.191 6.673,7.98 7.071,8.002 C7.474,8.031 7.821,8.3 7.949,8.684 L10,14.838 L13.051,5.684 C13.1868208,5.27517116 13.5692004,4.99927607 14,4.99927607 C14.4307996,4.99927607 14.8131792,5.27517116 14.949,5.684 L17.185,12.394 L17.605,11.553 C17.775,11.214 18.121,11 18.5,11 L21,11 C21.5522847,11 22,11.4477153 22,12 C22,12.5522847 21.5522847,13 21,13 M22,2 L2,2 C0.897,2 0,2.897 0,4 L0,20 C0,21.103 0.897,22 2,22 L22,22 C23.103,22 24,21.103 24,20 L24,4 C24,2.897 23.103,2 22,2" id="Icon" fill="#FFFFFF"></path>
        </g>
        <g id="Assets/Side-Bar/Icon-Settings" transform="translate(200.000000, 48.000000)">
            <rect id="Guide" fill-opacity="0" fill="#C2C2C2" x="0" y="0" width="24" height="24"></rect>
            <path d="M22.7767556,14.4403749 L21.1867556,13.1303749 C21.2386145,12.7492109 21.2653388,12.3650479 21.2667556,11.9803749 L21.2667556,11.9803749 C21.2653388,11.5957019 21.2386145,11.2115388 21.1867556,10.8303749 L22.7767556,9.52037487 C23.5393496,8.90751501 23.7466519,7.83292775 23.2667556,6.98037487 L22.0867556,4.98037487 C21.5964802,4.13166663 20.5633923,3.76331151 19.6467556,4.11037487 L17.7167556,4.83037487 C17.1016998,4.36087605 16.4296931,3.97111213 15.7167556,3.67037487 L15.3867556,1.67037487 C15.223885,0.696240851 14.3743188,-0.0131468868 13.3867556,0.000184803838 L11.0867556,0.000184803838 C10.0991924,-0.0131468868 9.24962625,0.696240851 9.08675561,1.67037487 L8.75675561,3.67037487 C8.04381813,3.97111213 7.37181138,4.36087605 6.75675561,4.83037487 L4.88675561,4.11037487 C3.97011897,3.76331151 2.93703107,4.13166663 2.44675561,4.98037487 L1.26675561,6.98037487 C0.780054808,7.82591153 0.974434943,8.89922793 1.72675561,9.52037487 L3.31675561,10.8303749 C3.27492301,11.2121996 3.25822038,11.5963602 3.26675561,11.9803749 L3.26675561,11.9803749 C3.26817238,12.3650479 3.29489677,12.7492109 3.34675561,13.1303749 L1.75675561,14.4403749 C0.994161592,15.0532347 0.786859325,16.127822 1.26675561,16.9803749 L2.41675561,18.9803749 C2.90703107,19.8290831 3.94011897,20.1974382 4.85675561,19.8503749 L6.78675561,19.1303749 C7.40181138,19.5998737 8.07381813,19.9896376 8.78675561,20.2903749 L9.11675561,22.2903749 C9.27962625,23.2645089 10.1291924,23.9738966 11.1167556,23.9605649 L13.4167556,23.9605649 C14.4043188,23.9738966 15.253885,23.2645089 15.4167556,22.2903749 L15.7467556,20.2903749 C16.4596931,19.9896376 17.1316998,19.5998737 17.7467556,19.1303749 L19.6767556,19.8503749 C20.5847763,20.1805793 21.5990306,19.8144378 22.0867556,18.9803749 L23.2667556,16.9803749 C23.7466519,16.127822 23.5393496,15.0532347 22.7767556,14.4403749 Z M12.2667556,15.9803749 C10.0576166,15.9803749 8.26675561,14.1895139 8.26675561,11.9803749 C8.26675561,9.77123587 10.0576166,7.98037487 12.2667556,7.98037487 C14.4758946,7.98037487 16.2667556,9.77123587 16.2667556,11.9803749 C16.2667556,13.0412408 15.8453282,14.0586565 15.0951827,14.808802 C14.3450372,15.5589475 13.3276216,15.9803749 12.2667556,15.9803749 Z" id="Icon" fill="#858594"></path>
        </g>
        <g id="Assets/Side-Bar/Icon-Services" transform="translate(168.000000, 48.000000)">
            <rect id="Guide" fill-opacity="0" fill="#C2C2C2" x="0" y="0" width="24" height="24"></rect>
            <path d="M23.42,8.29 L20.57,5.78 L19.05,2.29 L15.27,1.93 L12,0 L8.73,1.93 L5,2.29 L3.43,5.78 L0.58,8.29 L1.41,12 L0.58,15.71 L3.43,18.22 L5,21.71 L8.78,22.07 L9.78,22.67 L9.78,22.67 L12,24 L14.26,22.67 L14.26,22.67 L15.26,22.07 L19.04,21.71 L20.56,18.22 L23.41,15.71 L22.59,12 L23.42,8.29 Z M13,17 L13,18 C13,18.5522847 12.5522847,19 12,19 C11.4477153,19 11,18.5522847 11,18 L11,17 L9.5,17 C8.94771525,17 8.5,16.5522847 8.5,16 C8.5,15.4477153 8.94771525,15 9.5,15 L12.82,15 C13.4208488,15.0461632 13.9469872,14.6002833 14,14 C13.9469872,13.3997167 13.4208488,12.9538368 12.82,13 L11.18,13 C9.47528146,13.0448765 8.05441939,11.7044406 8,10 C8.03701543,8.35872252 9.35872252,7.03701543 11,7 L11,6 C11,5.44771525 11.4477153,5 12,5 C12.5522847,5 13,5.44771525 13,6 L13,7 L14,7 C14.5522847,7 15,7.44771525 15,8 C15,8.55228475 14.5522847,9 14,9 L11.18,9 C10.5791512,8.9538368 10.0530128,9.39971674 10,10 C10.0530128,10.6002833 10.5791512,11.0461632 11.18,11 L12.82,11 C14.5247185,10.9551235 15.9455806,12.2955594 16,14 C15.9629846,15.6412775 14.6412775,16.9629846 13,17 Z" id="Icon" fill="#858594"></path>
        </g>
        <g id="Assets/Side-Bar/Icon-Clients" transform="translate(136.000000, 48.000000)">
            <rect id="Guide" fill-opacity="0" fill="#C2C2C2" x="0" y="0" width="24" height="24"></rect>
            <path d="M20.8288219,15.1593378 C19.3378858,14.73017 18.878142,14.3227921 18.7645908,13.5658271 C18.7424345,13.4180342 18.8107498,13.2778204 18.9095301,13.1679231 C19.4052779,12.6127523 19.6554598,11.0666111 19.6554598,10.6222849 C20.0210392,10.1097467 20.0801227,9.7933183 20.2721442,8.96435165 C20.4170835,8.34096873 20.1068949,8.09843678 19.9444152,8.0169612 C19.896197,7.98963526 19.8693942,7.93462392 19.877023,7.87864219 C20.5758705,4.5722495 18.6085734,3.34822103 17.9826572,3.46569745 C15.7707173,2.49935918 14.6739792,3.20895463 14.0397543,4.03697389 C12.998407,4.43772006 13.0002534,6.69156195 13.3482923,7.86064177 C13.3690929,7.92385542 13.3405381,7.99304474 13.2818234,8.02169815 C13.1147277,8.10980546 12.8202332,8.35707437 12.9614798,8.96529904 C13.1535013,9.7933183 13.2125848,10.1097467 13.5781642,10.6222849 C13.5781642,11.0675585 13.8283461,12.6118049 14.3240939,13.1669757 C14.4228741,13.2778204 14.4911895,13.4180342 14.4690331,13.5658271 C14.355482,14.3227921 13.8957382,14.7311174 12.4048021,15.1593378 C9.65372498,15.9494615 9.26414292,17.3137037 9.23366318,20.5177783 C9.23269471,20.6444163 9.28077491,20.766268 9.36734069,20.8565253 C9.45390646,20.9467826 9.57186619,20.9980515 9.6952681,20.9990526 L23.5383559,20.9990526 C23.7940768,20.9990526 24.0027156,20.7811528 23.9999733,20.5177783 C23.9694811,17.3137037 23.579899,15.9494615 20.8288219,15.1593378 M8.31234409,20.5281996 C8.31183842,20.7881831 8.10686169,20.9989585 7.8535235,21 L0.46161927,21 C0.338555458,21 0.220585098,20.9495771 0.13391322,20.8599208 C0.0472413429,20.7702644 -0.000955364106,20.6488023 1.43547328e-05,20.5225152 C0.0295709143,17.3155985 0.419152978,15.9504089 3.17207647,15.1602852 C4.49407059,14.7794343 5.2363075,14.2290004 5.46710257,13.5809853 C5.49664433,13.497615 5.43571444,13.4114025 5.35078186,13.4009812 C4.51991963,13.2891891 3.61797253,12.9017064 3.23392955,12.723597 C3.12582627,12.6749579 3.07386051,12.5478859 3.11576248,12.4346429 C3.27916538,11.9770533 3.67890243,10.79471 3.90231205,9.63510409 C4.21065425,8.0368564 3.15361287,6.80619619 4.23004104,4.87920401 C4.46452882,4.45951004 5.04336283,3.46285528 6.46136769,3.73665112 C7.69196696,2.92757967 10.1208542,3.30274629 10.8326262,5.51206083 C11.3459144,7.00230602 10.6027543,8.26801967 10.8658606,9.63510409 C11.0523431,10.6042845 11.0754226,12.2688496 11.0773137,12.7899143 C11.0791903,12.8879949 11.0190958,12.9760956 10.9286369,13.0078141 C10.6535292,13.1082375 10.037768,13.3176108 9.4192372,13.4000338 C9.33338144,13.4114025 9.27152836,13.4985624 9.30199331,13.5819327 C9.44323989,13.9788893 9.77835432,14.3398451 10.3202611,14.6467996 C10.4707395,14.7320647 10.4827408,14.9528067 10.3378015,15.0484932 C8.62530219,16.1711508 8.33819313,17.8679272 8.31234409,20.5281996" id="Icon" fill="#858594"></path>
        </g>
        <g id="Assets/Side-Bar/Icon-Appointments" transform="translate(104.000000, 48.000000)">
            <rect id="Guide" fill-opacity="0" fill="#C2C2C2" x="0" y="0" width="24" height="24"></rect>
            <path d="M21.5,1 C22.327,1 23,1.673 23,2.5 L23,21.5 C23,22.327 22.327,23 21.5,23 L2.5,23 C1.673,23 1,22.327 1,21.5 L1,2.5 C1,1.673 1.673,1 2.5,1 L21.5,1 Z M19,11 C19.2761424,11 19.5,10.7761424 19.5,10.5 C19.5,10.2238576 19.2761424,10 19,10 C18.7238576,10 18.5,10.2238576 18.5,10.5 C18.5,10.7761424 18.7238576,11 19,11 Z M19,15 C19.2761424,15 19.5,14.7761424 19.5,14.5 C19.5,14.2238576 19.2761424,14 19,14 C18.7238576,14 18.5,14.2238576 18.5,14.5 C18.5,14.7761424 18.7238576,15 19,15 Z M19,19 C19.2761424,19 19.5,18.7761424 19.5,18.5 C19.5,18.2238576 19.2761424,18 19,18 C18.7238576,18 18.5,18.2238576 18.5,18.5 C18.5,18.7761424 18.7238576,19 19,19 Z M15,10.5 C15,10.7761424 15.2238576,11 15.5,11 C15.7761424,11 16,10.7761424 16,10.5 C16,10.2238576 15.7761424,10 15.5,10 C15.2238576,10 15,10.2238576 15,10.5 Z M15.5,16 C16.3284271,16 17,15.3284271 17,14.5 C17,13.6715729 16.3284271,13 15.5,13 C14.6715729,13 14,13.6715729 14,14.5 C14,15.3284271 14.6715729,16 15.5,16 Z M15.5,19 C15.7761424,19 16,18.7761424 16,18.5 C16,18.2238576 15.7761424,18 15.5,18 C15.2238576,18 15,18.2238576 15,18.5 C15,18.7761424 15.2238576,19 15.5,19 Z M12,11 C12.2761424,11 12.5,10.7761424 12.5,10.5 C12.5,10.2238576 12.2761424,10 12,10 C11.7238576,10 11.5,10.2238576 11.5,10.5 C11.5,10.7761424 11.7238576,11 12,11 Z M12,15 C12.2761424,15 12.5,14.7761424 12.5,14.5 C12.5,14.2238576 12.2761424,14 12,14 C11.7238576,14 11.5,14.2238576 11.5,14.5 C11.5,14.7761424 11.7238576,15 12,15 Z M12,19 C12.2761424,19 12.5,18.7761424 12.5,18.5 C12.5,18.2238576 12.2761424,18 12,18 C11.7238576,18 11.5,18.2238576 11.5,18.5 C11.5,18.7761424 11.7238576,19 12,19 Z M8.5,11 C8.77614237,11 9,10.7761424 9,10.5 C9,10.2238576 8.77614237,10 8.5,10 C8.22385763,10 8,10.2238576 8,10.5 C8,10.7761424 8.22385763,11 8.5,11 Z M8.5,15 C8.77614237,15 9,14.7761424 9,14.5 C9,14.2238576 8.77614237,14 8.5,14 C8.22385763,14 8,14.2238576 8,14.5 C8,14.7761424 8.22385763,15 8.5,15 Z M8.5,19 C8.77614237,19 9,18.7761424 9,18.5 C9,18.2238576 8.77614237,18 8.5,18 C8.22385763,18 8,18.2238576 8,18.5 C8,18.7761424 8.22385763,19 8.5,19 Z M5,11 C5.27614237,11 5.5,10.7761424 5.5,10.5 C5.5,10.2238576 5.27614237,10 5,10 C4.72385763,10 4.5,10.2238576 4.5,10.5 C4.5,10.7761424 4.72385763,11 5,11 Z M5,15 C5.27614237,15 5.5,14.7761424 5.5,14.5 C5.5,14.2238576 5.27614237,14 5,14 C4.72385763,14 4.5,14.2238576 4.5,14.5 C4.5,14.7761424 4.72385763,15 5,15 Z M5,19 C5.27614237,19 5.5,18.7761424 5.5,18.5 C5.5,18.2238576 5.27614237,18 5,18 C4.72385763,18 4.5,18.2238576 4.5,18.5 C4.5,18.7761424 4.72385763,19 5,19 Z M3,7 L21,7 L21,3 L3,3 L3,7 Z" id="Icon" fill="#858594"></path>
        </g>
        <g id="Assets/Side-Bar/Icon-Workflow" transform="translate(72.000000, 48.000000)">
            <rect id="Guide" fill-opacity="0" fill="#C2C2C2" x="0" y="0" width="24" height="24"></rect>
            <path d="M22,22 L2,22 C0.8954305,22 0,21.1045695 0,20 L0,5 C0,3.8954305 0.8954305,3 2,3 L22,3 C23.1045695,3 24,3.8954305 24,5 L24,20 C24,21.1045695 23.1045695,22 22,22 Z M7,5.5 C7,5.22385763 6.77614237,5 6.5,5 L2.5,5 C2.22385763,5 2,5.22385763 2,5.5 L2,19.5 C2,19.7761424 2.22385763,20 2.5,20 L6.5,20 C6.77614237,20 7,19.7761424 7,19.5 L7,5.5 Z M15,5.5 C15,5.22385763 14.7761424,5 14.5,5 L9.5,5 C9.22385763,5 9,5.22385763 9,5.5 L9,19.5 C9,19.7761424 9.22385763,20 9.5,20 L14.5,20 C14.7761424,20 15,19.7761424 15,19.5 L15,5.5 Z M22,5.5 C22,5.22385763 21.7761424,5 21.5,5 L17.5,5 C17.2238576,5 17,5.22385763 17,5.5 L17,19.5 C17,19.7761424 17.2238576,20 17.5,20 L21.5,20 C21.7761424,20 22,19.7761424 22,19.5 L22,5.5 Z" id="Icon" fill="#858594"></path>
        </g>
        <g id="Assets/Side-Bar/Icon-Conversations" transform="translate(40.000000, 48.000000)">
            <rect id="Guide" fill-opacity="0" fill="#C2C2C2" x="0" y="0" width="24" height="24"></rect>
            <path d="M16,12 C15.4477153,12 15,11.5522847 15,11 C15,10.4477153 15.4477153,10 16,10 C16.5522847,10 17,10.4477153 17,11 C17,11.5522847 16.5522847,12 16,12 M12,12 C11.4477153,12 11,11.5522847 11,11 C11,10.4477153 11.4477153,10 12,10 C12.5522847,10 13,10.4477153 13,11 C13,11.5522847 12.5522847,12 12,12 M8,12 C7.44771525,12 7,11.5522847 7,11 C7,10.4477153 7.44771525,10 8,10 C8.55228475,10 9,10.4477153 9,11 C9,11.5522847 8.55228475,12 8,12 M12,0 C5.383,0 0,4.935 0,11 C0,14.003 1.328,16.721 3.464,18.707 C3.707,18.933 3.85,19.256 3.793,19.582 C3.596,20.729 3.057,21.916 2.161,23.117 L2.096,23.205 C1.98646106,23.3573802 1.97106325,23.5581339 2.05608252,23.7254367 C2.14110179,23.8927395 2.31233895,23.9986498 2.5,24 C5.033,24 6.751,23.052 7.923,21.862 C8.173,21.607 8.546,21.535 8.892,21.62 C9.884,21.866 10.925,22 12,22 C18.617,22 24,17.065 24,11 C24,4.935 18.617,0 12,0" id="Icon" fill="#858594"></path>
        </g>
        <g id="Assets/Side-Bar/Icon-Overview" transform="translate(8.000000, 48.000000)">
            <rect id="Guide" fill-opacity="0" fill="#C2C2C2" x="0" y="0" width="24" height="24"></rect>
            <path d="M21,13 L19.118,13 L17.895,15.447 C17.7110244,15.8062341 17.3318592,16.0225074 16.929,15.998 C16.5254883,15.9687648 16.1791461,15.6997381 16.051,15.316 L14,9.162 L10.949,18.316 C10.8131792,18.7248288 10.4307996,19.0007239 10,19.0007239 C9.56920038,19.0007239 9.18682081,18.7248288 9.051,18.316 L6.815,11.606 L6.395,12.447 C6.225,12.786 5.879,13 5.5,13 L3,13 C2.44771525,13 2,12.5522847 2,12 C2,11.4477153 2.44771525,11 3,11 L4.882,11 L6.105,8.553 C6.287,8.191 6.673,7.98 7.071,8.002 C7.474,8.031 7.821,8.3 7.949,8.684 L10,14.838 L13.051,5.684 C13.1868208,5.27517116 13.5692004,4.99927607 14,4.99927607 C14.4307996,4.99927607 14.8131792,5.27517116 14.949,5.684 L17.185,12.394 L17.605,11.553 C17.775,11.214 18.121,11 18.5,11 L21,11 C21.5522847,11 22,11.4477153 22,12 C22,12.5522847 21.5522847,13 21,13 M22,2 L2,2 C0.897,2 0,2.897 0,4 L0,20 C0,21.103 0.897,22 2,22 L22,22 C23.103,22 24,21.103 24,20 L24,4 C24,2.897 23.103,2 22,2" id="Icon" fill="#858594"></path>
        </g>
        <g id="iconTabBarLogoCompact" transform="translate(180.000000, 8.000000)">
            <rect id="Bounding" fill-opacity="0" fill="#FFFFFF" x="0" y="0" width="24" height="24"></rect>
            <path d="M21.2392008,8.48193714 C19.9650955,8.04951607 18.6063586,8.65877925 18.4752007,9.04530558 C18.2733059,9.64088455 19.0516218,10.7417267 20.3257271,11.1741478 C21.6000429,11.6065688 22.7396219,11.6421478 23.0895167,10.6107793 C23.4396219,9.57920034 22.5133061,8.91435821 21.2392008,8.48193714" id="Fill-5" fill="#76C1C6"></path>
            <path d="M19.2219586,13.95379 C20.1914323,14.2828426 21.0588008,14.3102111 21.3253271,13.5251584 C21.5916429,12.7401057 20.8868008,12.234211 19.9171165,11.9049478 C18.9474323,11.5761057 17.9135375,12.0396846 17.813748,12.3335794 C17.6598533,12.7870531 18.2524849,13.6247373 19.2219586,13.95379" id="Fill-7" fill="#76C1C6"></path>
            <path d="M18.4752639,6.98991603 C18.6064218,7.37644236 19.9649481,7.98549501 21.239264,7.55328447 C22.5131587,7.1208634 23.4396851,6.45602127 23.0895798,5.42423175 C22.7396851,4.39286329 21.6001061,4.42865277 20.3257902,4.86107384 C19.0516849,5.29328438 18.2731586,6.39433706 18.4752639,6.98991603" id="Fill-8" fill="#76C1C6"></path>
            <path d="M19.9170534,4.13012644 C20.8869482,3.8010738 21.5915798,3.29496851 21.325264,2.50991585 C21.0589482,1.72507371 20.1915797,1.75244214 19.2218955,2.08128425 C18.2524217,2.4103369 17.6597901,3.24802114 17.8136849,3.70149484 C17.9134744,3.99538959 18.9475797,4.45917908 19.9170534,4.13012644" id="Fill-9" fill="#76C1C6"></path>
            <path d="M5.44086333,11.9471162 L5.44086333,5.22837912 C5.44086333,5.10080016 5.5429686,4.99890542 5.67265282,4.99890542 C6.34275811,4.99637911 7.01496866,4.99174753 7.68738974,4.98480016 C8.43391608,4.975537 9.18275822,4.98017635 9.93160035,4.99890542 C10.4231793,4.99890542 10.8636004,5.09385279 11.2461267,5.27932649 C11.6309688,5.46711597 11.9556004,5.72437914 12.2223373,6.04901073 C12.4865478,6.37364232 12.6951794,6.75385286 12.8412847,7.18501077 C12.9897057,7.618695 13.063811,8.07301081 13.063811,8.54606346 C13.063811,9.0374319 12.9897057,9.50585297 12.8412847,9.94858983 C12.6951794,10.3915372 12.4819162,10.7763793 12.2061268,11.1008004 C11.9301268,11.425432 11.6008636,11.6875373 11.2160215,11.8845899 C10.8334951,12.0816425 10.404653,12.1789057 9.93160035,12.1789057 L5.67265282,12.1789057 C5.54528439,12.1789057 5.44086333,12.0746952 5.44086333,11.9471162 M22.7014956,18.862906 L5.76086335,18.862906 C5.63328439,18.862906 5.52886334,18.7586954 5.52886334,18.6311165 L5.52886334,16.192169 C5.52886334,16.0622743 5.63328439,15.9603795 5.76086335,15.9603795 L9.93160035,15.9603795 C11.1141267,15.9603795 12.1619162,15.7586953 13.0777057,15.3551164 C13.9934953,14.9517479 14.7631795,14.4138532 15.3823374,13.7462742 C16.0036006,13.0761689 16.4766532,12.3018531 16.8010743,11.425432 C17.1257059,10.5490109 17.2880217,9.62858982 17.2880217,8.66416873 C17.2880217,7.69743185 17.1303375,6.75848444 16.814969,5.84269493 C16.4998111,4.92690542 16.0337059,4.12248433 15.4124427,3.43385273 C14.790969,2.74522112 14.0236005,2.18880005 13.107811,1.7645895 C12.1920215,1.34037896 11.132653,1.12943158 9.93160035,1.12943158 C8.45475819,1.12943158 6.98254761,1.1248 5.5149686,1.11532632 C4.20044223,1.10374737 2.88128429,1.10837895 1.55749476,1.12248422 C1.30254738,1.12711579 1.09854737,1.33343159 1.09854737,1.58837897 L1.09854737,22.8321693 C1.09854737,23.0871167 1.30486317,23.2957483 1.56212634,23.2957483 L22.7014956,23.2957483 C22.9566535,23.2957483 23.1652851,23.0871167 23.1652851,22.8321693 L23.1652851,19.3266955 C23.1652851,19.0694323 22.9566535,18.862906 22.7014956,18.862906" id="Fill-10" fill="#76C1C6"></path>
        </g>
        <g id="iconTabBarLogo">
            <rect id="Bounding" fill-opacity="0" fill="#FFFFFF" x="0" y="0" width="168" height="40"></rect>
            <path d="M32.2392008,16.4819371 C30.9650955,16.0495161 29.6063586,16.6587793 29.4752007,17.0453056 C29.2733059,17.6408846 30.0516218,18.7417267 31.3257271,19.1741478 C32.6000429,19.6065688 33.7396219,19.6421478 34.0895167,18.6107793 C34.4396219,17.5792003 33.5133061,16.9143582 32.2392008,16.4819371" id="Fill-5" fill="#76C1C6"></path>
            <path d="M30.2219586,21.95379 C31.1914323,22.2828426 32.0588008,22.3102111 32.3253271,21.5251584 C32.5916429,20.7401057 31.8868008,20.234211 30.9171165,19.9049478 C29.9474323,19.5761057 28.9135375,20.0396846 28.813748,20.3335794 C28.6598533,20.7870531 29.2524849,21.6247373 30.2219586,21.95379" id="Fill-7" fill="#76C1C6"></path>
            <path d="M29.4752639,14.989916 C29.6064218,15.3764424 30.9649481,15.985495 32.239264,15.5532845 C33.5131587,15.1208634 34.4396851,14.4560213 34.0895798,13.4242318 C33.7396851,12.3928633 32.6001061,12.4286528 31.3257902,12.8610738 C30.0516849,13.2932844 29.2731586,14.3943371 29.4752639,14.989916" id="Fill-8" fill="#76C1C6"></path>
            <path d="M30.9170534,12.1301264 C31.8869482,11.8010738 32.5915798,11.2949685 32.325264,10.5099158 C32.0589482,9.72507371 31.1915797,9.75244214 30.2218955,10.0812843 C29.2524217,10.4103369 28.6597901,11.2480211 28.8136849,11.7014948 C28.9134744,11.9953896 29.9475797,12.4591791 30.9170534,12.1301264" id="Fill-9" fill="#76C1C6"></path>
            <path d="M16.4408633,19.9471162 L16.4408633,13.2283791 C16.4408633,13.1008002 16.5429686,12.9989054 16.6726528,12.9989054 C17.3427581,12.9963791 18.0149687,12.9917475 18.6873897,12.9848002 C19.4339161,12.975537 20.1827582,12.9801763 20.9316004,12.9989054 C21.4231793,12.9989054 21.8636004,13.0938528 22.2461267,13.2793265 C22.6309688,13.467116 22.9556004,13.7243791 23.2223373,14.0490107 C23.4865478,14.3736423 23.6951794,14.7538529 23.8412847,15.1850108 C23.9897057,15.618695 24.063811,16.0730108 24.063811,16.5460635 C24.063811,17.0374319 23.9897057,17.505853 23.8412847,17.9485898 C23.6951794,18.3915372 23.4819162,18.7763793 23.2061268,19.1008004 C22.9301268,19.425432 22.6008636,19.6875373 22.2160215,19.8845899 C21.8334951,20.0816425 21.404653,20.1789057 20.9316004,20.1789057 L16.6726528,20.1789057 C16.5452844,20.1789057 16.4408633,20.0746952 16.4408633,19.9471162 M33.7014956,26.862906 L16.7608633,26.862906 C16.6332844,26.862906 16.5288633,26.7586954 16.5288633,26.6311165 L16.5288633,24.192169 C16.5288633,24.0622743 16.6332844,23.9603795 16.7608633,23.9603795 L20.9316004,23.9603795 C22.1141267,23.9603795 23.1619162,23.7586953 24.0777057,23.3551164 C24.9934953,22.9517479 25.7631795,22.4138532 26.3823374,21.7462742 C27.0036006,21.0761689 27.4766532,20.3018531 27.8010743,19.425432 C28.1257059,18.5490109 28.2880217,17.6285898 28.2880217,16.6641687 C28.2880217,15.6974318 28.1303375,14.7584844 27.814969,13.8426949 C27.4998111,12.9269054 27.0337059,12.1224843 26.4124427,11.4338527 C25.790969,10.7452211 25.0236005,10.1888 24.107811,9.7645895 C23.1920215,9.34037896 22.132653,9.12943158 20.9316004,9.12943158 C19.4547582,9.12943158 17.9825476,9.1248 16.5149686,9.11532632 C15.2004422,9.10374737 13.8812843,9.10837895 12.5574948,9.12248422 C12.3025474,9.12711579 12.0985474,9.33343159 12.0985474,9.58837897 L12.0985474,30.8321693 C12.0985474,31.0871167 12.3048632,31.2957483 12.5621263,31.2957483 L33.7014956,31.2957483 C33.9566535,31.2957483 34.1652851,31.0871167 34.1652851,30.8321693 L34.1652851,27.3266955 C34.1652851,27.0694323 33.9566535,26.862906 33.7014956,26.862906" id="Fill-10" fill="#76C1C6"></path>
            <path d="M50.6223805,20.8965689 C51.0950121,20.8965689 51.5236437,20.7982531 51.9076437,20.6012005 C52.2916437,20.4043583 52.6213279,20.1430952 52.8975385,19.8182531 C53.1731174,19.4932004 53.3851174,19.1089899 53.5326964,18.665832 C53.6804859,18.2226741 53.7543806,17.7550951 53.7543806,17.2624635 C53.7543806,16.7896214 53.6804859,16.3369898 53.5326964,15.9033055 C53.3851174,15.4702529 53.1781701,15.0906739 52.9122753,14.7660423 C52.64617,14.4409897 52.3213279,14.1852002 51.9371174,13.9976213 C51.5533279,13.8106739 51.114591,13.7172002 50.6223805,13.7172002 C49.8735383,13.6976212 49.1253278,13.6925686 48.3769067,13.7022528 C47.7185909,13.7110949 47.0604856,13.7157265 46.4023803,13.7167791 C46.2526961,13.7172002 46.1314329,13.8382528 46.1314329,13.9881476 L46.1314329,20.6249899 C46.1314329,20.7750952 46.2531172,20.8965689 46.4030119,20.8965689 L50.6223805,20.8965689 Z M41.7882749,29.5913061 L41.7882749,10.7736211 C41.7882749,10.2601474 42.2019591,9.84077898 42.7156433,9.8361474 C43.8819592,9.82562109 45.0451171,9.82393687 46.2053277,9.83172635 C47.6724856,9.84183161 49.1451173,9.84646319 50.6223805,9.84646319 C51.8236437,9.84646319 52.8825911,10.0584632 53.7985911,10.4818316 C54.7143806,10.9056211 55.4828017,11.4620422 56.1032228,12.1510949 C56.7236439,12.8407791 57.1912228,13.6430949 57.5068018,14.559095 C57.8215387,15.4748845 57.9792229,16.4157266 57.9792229,17.3805688 C57.9792229,18.3460425 57.8166966,19.2668846 57.4918544,20.1430952 C57.1668018,21.0199373 56.6941702,21.7932005 56.0735386,22.4624637 C55.4531175,23.1323585 54.684907,23.6692006 53.7689069,24.0727795 C52.8531174,24.4767796 51.8042753,24.6784638 50.6223805,24.6784638 L46.4916435,24.6784638 C46.3415382,24.6784638 46.2200645,24.7999375 46.2200645,24.9498322 L46.2200645,29.5913061 C46.2200645,30.1087798 45.8004856,30.5283588 45.2828013,30.5283588 L42.7253275,30.5283588 C42.2078538,30.5283588 41.7882749,30.1087798 41.7882749,29.5913061 L41.7882749,29.5913061 Z" id="Fill-11" fill="#0D264C"></path>
            <path d="M71.6671603,13.7465897 L64.8650547,13.7465897 C64.60316,13.7465897 64.3907389,13.9592212 64.3907389,14.221116 L64.3907389,17.4674319 C64.3907389,17.7295372 64.60316,17.9419583 64.8650547,17.9419583 L71.1353708,17.9419583 C71.653055,17.9419583 72.072634,18.3617477 72.072634,18.879432 L72.072634,20.8752215 C72.072634,21.3929058 71.653055,21.8126952 71.1353708,21.8126952 L64.8650547,21.8126952 C64.60316,21.8126952 64.3907389,22.0249058 64.3907389,22.2870111 L64.3907389,26.065327 C64.3907389,26.3272217 64.60316,26.5398533 64.8650547,26.5398533 L71.9033708,26.5398533 C72.421055,26.5398533 72.8408445,26.9594323 72.8408445,27.476906 L72.8408445,29.6209061 C72.8408445,30.1385903 72.421055,30.5579588 71.9033708,30.5579588 L60.8665283,30.5579588 C60.348844,30.5579588 59.9292651,30.1385903 59.9292651,29.6209061 L59.9292651,10.8133264 C59.9292651,10.2956422 60.348844,9.87627372 60.8665283,9.87627372 L71.6671603,9.87627372 C72.1848445,9.87627372 72.6042129,10.2956422 72.6042129,10.8133264 L72.6042129,12.809537 C72.6042129,13.3270107 72.1848445,13.7465897 71.6671603,13.7465897" id="Fill-12" fill="#0D264C"></path>
            <path d="M74.9677078,12.7797896 L74.9677078,10.8132632 C74.9677078,10.295579 75.3872867,9.87621056 75.9047604,9.87621056 L89.3352873,9.87621056 C89.8529715,9.87621056 90.27234,10.295579 90.27234,10.8132632 L90.27234,12.7797896 C90.27234,13.2972633 89.8529715,13.7168423 89.3352873,13.7168423 L85.2632871,13.7168423 C84.9946555,13.7168423 84.7769713,13.934737 84.7769713,14.2035792 L84.7769713,29.6208429 C84.7769713,30.1385272 84.3573923,30.5578956 83.8397081,30.5578956 L81.4300238,30.5578956 C80.9123396,30.5578956 80.4927606,30.1385272 80.4927606,29.6208429 L80.4927606,14.2035792 C80.4927606,13.934737 80.2750764,13.7168423 80.0064448,13.7168423 L75.9047604,13.7168423 C75.3872867,13.7168423 74.9677078,13.2972633 74.9677078,12.7797896" id="Fill-13" fill="#0D264C"></path>
            <path d="M96.9281507,26.5988849 L104.593414,26.5988849 C104.859098,26.5988849 105.074467,26.8142533 105.074467,27.0799376 L105.074467,30.0769903 C105.074467,30.3426745 104.859098,30.558043 104.593414,30.558043 L92.4961506,30.558043 C92.2304663,30.558043 92.0150979,30.3426745 92.0150979,30.0769903 L92.0150979,10.3572001 C92.0150979,10.0915158 92.2304663,9.8761474 92.4961506,9.8761474 L95.9660454,9.8761474 C96.2317297,9.8761474 96.4470981,10.0915158 96.4470981,10.3572001 L96.4470981,26.1178323 C96.4470981,26.3835165 96.6624665,26.5988849 96.9281507,26.5988849" id="Fill-14" fill="#0D264C"></path>
            <path d="M117.749099,27.979306 L117.749099,29.6207798 C117.749099,30.138464 117.32952,30.558043 116.812046,30.558043 L108.404467,30.558043 C107.886783,30.558043 107.467204,30.138464 107.467204,29.6207798 L107.467204,27.979306 C107.467204,27.4618323 107.886783,27.0422533 108.404467,27.0422533 L110.012467,27.0422533 C110.222151,27.0422533 110.392257,26.8719376 110.392257,26.6624639 L110.392257,13.6828844 C110.392257,13.4734107 110.222151,13.303516 110.012467,13.303516 L108.640678,13.303516 C108.123204,13.303516 107.703625,12.8837265 107.703625,12.3660422 L107.703625,10.8132001 C107.703625,10.2957264 108.123204,9.8761474 108.640678,9.8761474 L116.575415,9.8761474 C117.093309,9.8761474 117.512678,10.2957264 117.512678,10.8132001 L117.512678,12.3660422 C117.512678,12.8837265 117.093309,13.303516 116.575415,13.303516 L115.203625,13.303516 C114.994151,13.303516 114.824257,13.4734107 114.824257,13.6828844 L114.824257,26.6624639 C114.824257,26.8719376 114.994151,27.0422533 115.203625,27.0422533 L116.812046,27.0422533 C117.32952,27.0422533 117.749099,27.4618323 117.749099,27.979306" id="Fill-15" fill="#0D264C"></path>
            <path d="M125.282868,19.2356425 L125.282868,29.6209061 C125.282868,30.1385903 124.863289,30.5579588 124.345815,30.5579588 L121.817815,30.5579588 C121.300341,30.5579588 120.880552,30.1385903 120.880552,29.6209061 L120.880552,10.7246948 C120.880552,10.2070106 121.300341,9.78764214 121.817815,9.78764214 L121.876131,9.78764214 C122.127499,9.78764214 122.368341,9.88848425 122.544552,10.0678527 L133.532552,21.2512215 C133.660131,21.3811163 133.880763,21.291011 133.880763,21.1089057 L133.880763,10.8133264 C133.880763,10.2956422 134.300342,9.87606319 134.817815,9.87606319 L137.375289,9.87606319 C137.892973,9.87606319 138.312552,10.2956422 138.312552,10.8133264 L138.312552,29.6798535 C138.312552,30.1975377 137.892973,30.6173272 137.375289,30.6173272 C137.124131,30.6173272 136.88371,30.5164851 136.7075,30.3377482 L125.630868,19.0931162 C125.503289,18.963432 125.282868,19.0539583 125.282868,19.2356425" id="Fill-16" fill="#0D264C"></path>
            <path d="M154.203121,13.7465897 L147.401016,13.7465897 C147.139121,13.7465897 146.9267,13.9592212 146.9267,14.221116 L146.9267,17.4674319 C146.9267,17.7295372 147.139121,17.9419583 147.401016,17.9419583 L153.671332,17.9419583 C154.189016,17.9419583 154.608595,18.3617477 154.608595,18.879432 L154.608595,20.8752215 C154.608595,21.3929058 154.189016,21.8126952 153.671332,21.8126952 L147.401016,21.8126952 C147.139121,21.8126952 146.9267,22.0249058 146.9267,22.2870111 L146.9267,26.065327 C146.9267,26.3272217 147.139121,26.5398533 147.401016,26.5398533 L154.439332,26.5398533 C154.957016,26.5398533 155.376595,26.9594323 155.376595,27.476906 L155.376595,29.6209061 C155.376595,30.1385903 154.957016,30.5579588 154.439332,30.5579588 L143.402489,30.5579588 C142.884805,30.5579588 142.465226,30.1385903 142.465226,29.6209061 L142.465226,10.8133264 C142.465226,10.2956422 142.884805,9.87627372 143.402489,9.87627372 L154.203121,9.87627372 C154.720806,9.87627372 155.140174,10.2956422 155.140174,10.8133264 L155.140174,12.809537 C155.140174,13.3270107 154.720806,13.7465897 154.203121,13.7465897" id="Fill-17" fill="#0D264C"></path>
        </g>
    </g>
</svg>